<svg xmlns="http://www.w3.org/2000/svg" xmlns:xlink="http://www.w3.org/1999/xlink" viewBox="0 0 82.99 94.22"><defs><style>.cls-1{isolation:isolate;}.cls-2{fill:#66ebbc;}.cls-3{fill:#02cbc4;}.cls-4{fill:#00ce9a;mix-blend-mode:multiply;}.cls-4,.cls-5{opacity:0.4;}.cls-5{fill:#00757c;}.cls-6{fill:#1a1719;}.cls-7{fill:#fd878b;}.cls-8{fill:#7a302f;}.cls-9{fill:#641617;}.cls-10{fill:#fff;}</style></defs><g class="cls-1"><g id="Capa_1" data-name="Capa 1"><circle class="cls-2" cx="974.96" cy="547.47" r="38.69" transform="translate(-1042.93 -233.41) rotate(-15.23)"/><path class="cls-3" d="M1009.31,532.78s.1-.13.08-.2a.19.19,0,0,0-.28,0,.2.2,0,0,0-.06.13.48.48,0,0,1,0,.12c0,.1-.19.12-.17.24l0,.29.06.06a.16.16,0,0,1,0,.07.2.2,0,0,0,.1.08.69.69,0,0,0,.15.07.1.1,0,0,0,.09,0s0,0,0-.06a.39.39,0,0,0,0-.3.73.73,0,0,0,0-.09l-.07,0a.34.34,0,0,1-.09-.08s0,0,0-.09Z" transform="translate(-933.35 -508.78)"/><path class="cls-3" d="M1007.77,534.62a.51.51,0,0,0,.12.23,1.08,1.08,0,0,1,.12.24c.11.21.13.44.22.66l.07.14a.11.11,0,0,1,0,.08l0,.22a.11.11,0,0,0,0,.08l.07.09a.26.26,0,0,0,.18.09s.05,0,.08,0a.76.76,0,0,0,.08-.11l.06-.06.07-.09a.7.7,0,0,1,.24-.13h.08l.18-.12s.09-.1.14-.09.08.11.09.13l.13.19a.27.27,0,0,0,.07.08l.1.07.12.06.15.07a.65.65,0,0,0,.23.06h.22s.15,0,.18,0a.2.2,0,0,0,0-.11.66.66,0,0,1,0-.14.54.54,0,0,0,0-.25.3.3,0,0,0,0-.08,1.55,1.55,0,0,0,0-.21.62.62,0,0,0-.16-.2c-.1-.1-.2-.19-.29-.29s-.17-.25-.28-.36a.43.43,0,0,0-.1-.09l-.1-.07a.24.24,0,0,1-.12-.16l-.06-.15a.57.57,0,0,1,0-.14c0-.07-.11-.11-.16-.17a.64.64,0,0,1-.1-.13s0,0-.06,0,0,.06-.06.08l0,0-.06.08a.83.83,0,0,0-.07.13s0,0-.07,0-.07,0-.1-.07a.86.86,0,0,1-.11-.19,1.77,1.77,0,0,0-.06-.17.41.41,0,0,0-.15-.17c-.09,0-.2-.07-.19-.19s.05-.16,0-.23a.65.65,0,0,0-.18-.15l-.1-.08a.52.52,0,0,0-.1-.11.12.12,0,0,0-.1,0,.28.28,0,0,0-.16.16.69.69,0,0,0,0,.25.47.47,0,0,0,.12.29l.1.1a.35.35,0,0,1,0,.23,1.62,1.62,0,0,1-.15.42A.37.37,0,0,0,1007.77,534.62Z" transform="translate(-933.35 -508.78)"/><path class="cls-3" d="M1007,542.13a1.59,1.59,0,0,1,.38-.06.78.78,0,0,1,.4.08,1,1,0,0,1,.23.26l.2.25a2.71,2.71,0,0,0,.42.41.31.31,0,0,0,.21.09,1.59,1.59,0,0,0,.38,0,.69.69,0,0,1,.32,0c.11,0,.27.19.38.08s.13-.2.22-.26a1.14,1.14,0,0,1,.32-.07l.23,0,.12,0s.11,0,.14,0a2.83,2.83,0,0,0,0-.41c0-.11,0-.22,0-.34a2.4,2.4,0,0,0-.07-.6,1.25,1.25,0,0,1-.08-.32.74.74,0,0,1,0-.21c0-.12,0-.23,0-.35s0-.48,0-.73-.06-.49-.3-.41a.22.22,0,0,0-.13.08.51.51,0,0,1-.16.13l-.16.05h-.1s0-.05-.06-.08a1.15,1.15,0,0,0-.22-.22c-.07-.06-.11-.12-.19,0a.87.87,0,0,1-.28.26c-.13.06-.21,0-.27-.08a1.34,1.34,0,0,0-.13-.27,2.57,2.57,0,0,0-.33-.33,1.07,1.07,0,0,1-.29-.38.5.5,0,0,1,0-.32.69.69,0,0,0-.11-.36.67.67,0,0,0-.16-.27.25.25,0,0,1-.08-.14s0-.06,0-.09l0-.15a.56.56,0,0,0,0-.12c0-.06,0-.07,0-.1a.84.84,0,0,1,.25-.09l.27,0a.12.12,0,0,0,.1-.07c0-.1-.11-.2-.17-.25l-.16-.11c-.07,0-.1,0-.17,0a1.67,1.67,0,0,1-.44.06c-.09,0-.23,0-.31,0a.43.43,0,0,0-.14.3.27.27,0,0,1,0,.12.39.39,0,0,1-.17.11c-.06,0-.16,0-.2.09s.06.24.13.3.3.27.43.42a2.25,2.25,0,0,1,.24.36.66.66,0,0,1,.09.19c0,.11-.13.13-.17.2s.07.28.09.41a1.24,1.24,0,0,1,0,.33c0,.12,0,.25-.14.26a.71.71,0,0,1-.6-.5c-.06-.13-.09-.27-.14-.4a.84.84,0,0,0-.13-.27.81.81,0,0,0-.3-.21.63.63,0,0,1-.29-.22c-.05-.08,0-.16,0-.23a.73.73,0,0,0-.28-.67.24.24,0,0,1-.08-.21,1,1,0,0,0,0-.34,2,2,0,0,0-.88-1.23,1.11,1.11,0,0,0-.29-.14l-.1,0a1.43,1.43,0,0,1-.34-.31,3.27,3.27,0,0,0-.55-.5,2.32,2.32,0,0,0-.31-.19,1.21,1.21,0,0,1-.3-.2.28.28,0,0,1-.07-.17c0-.11-.12-.18-.2-.25s-.15-.14-.25-.08a.57.57,0,0,0-.21.2.31.31,0,0,0,0,.28,1.23,1.23,0,0,0,.12.26.74.74,0,0,0,.28.21l.26.14c.06,0,.1,0,.11.1s0,.35.14.48a.91.91,0,0,0,.19.13l.23.12a1.06,1.06,0,0,1,.2.17l.58.59a.94.94,0,0,0,.42.25,1.1,1.1,0,0,1,.43.25l.09.1.14.12a.22.22,0,0,1,0,.3l-.08.08c-.06.07-.11,0-.17,0a.86.86,0,0,1-.18-.14s-.11-.1-.16-.09-.09.1-.09.15.1.11.13.15a1.14,1.14,0,0,1,.31.31c.06.14,0,.23-.15.3s-.14.07-.19.15a.39.39,0,0,0-.08.21.25.25,0,0,0,0,.12s.08.1.07.15-.15,0-.17.17a1.37,1.37,0,0,0,0,.35.28.28,0,0,1,0,.18s-.05.11-.11.14c-.22.13-.36-.29-.48-.4a.8.8,0,0,0-.22-.13,1,1,0,0,1-.18-.1.42.42,0,0,1-.09-.14c0-.07-.07-.12,0-.17s.43,0,.62-.11.15-.18.19-.28l.09-.26a.3.3,0,0,0-.07-.33l-.09-.11c-.06-.07-.09-.17-.15-.24s-.23-.13-.33-.21-.23-.28-.39-.35-.34-.08-.49-.16-.32-.38-.43-.56a.5.5,0,0,0-.19-.19,2.22,2.22,0,0,0-.32-.14.61.61,0,0,1-.23-.15,1.24,1.24,0,0,1-.1-.2c0-.08-.09-.16-.14-.24s-.16-.28-.25-.42a.52.52,0,0,0-.19-.2.43.43,0,0,0-.41.08c-.09.07-.15.17-.25.24l-.21.12c-.09,0-.18.11-.27.14a1.4,1.4,0,0,1-.45.06,1.16,1.16,0,0,1-.32,0c-.15,0-.29,0-.44,0a.28.28,0,0,0-.18,0s0,.16,0,.22a.39.39,0,0,0,.06.19.26.26,0,0,1,.07.15l0,.1c0,.09-.07.19-.11.28a1,1,0,0,1-.1.17,1.89,1.89,0,0,0-.09.21.72.72,0,0,1-.12.25c-.09.11-.25.08-.37.14a.35.35,0,0,0-.22.33.38.38,0,0,1-.07.21c0,.07-.12.13-.16.2a.34.34,0,0,0-.05.17,2.29,2.29,0,0,0,.07.28.61.61,0,0,1,0,.19c0,.16-.08.33-.11.49s0,.26-.16.31a3,3,0,0,0-.68.31l-.14.12a1.38,1.38,0,0,1-.34.18.46.46,0,0,1-.39.08l-.12-.06a.29.29,0,0,1-.14,0s-.36.08-.35.33a2.08,2.08,0,0,0,0,.25.42.42,0,0,0,0,.12c0,.07.1.1.15.14a.3.3,0,0,0,.3,0,.53.53,0,0,1,.18-.05h.27a.27.27,0,0,1,.17,0,.25.25,0,0,0,.14.08,1.71,1.71,0,0,0,.32,0,1.31,1.31,0,0,0,.28,0l.13,0a.76.76,0,0,0,.19-.12l.19-.18a1.29,1.29,0,0,1,.15-.17,1.9,1.9,0,0,1,.39-.31,2.16,2.16,0,0,1,.57,0,5.1,5.1,0,0,1,.68,0,1.07,1.07,0,0,0,.52-.17,1.51,1.51,0,0,0,.18-.09,1.79,1.79,0,0,1,.32-.13.67.67,0,0,1,.48.06.78.78,0,0,0,.37.06,1.06,1.06,0,0,0,.19-.06l.29-.08.37-.13a.67.67,0,0,1,.35-.1.31.31,0,0,1,.19.06c.06,0,.1,0,.12.11a.32.32,0,0,1,0,.16c0,.06,0,.12,0,.17s.21.19.25.34,0,.07,0,.11,0,.09,0,.13a.88.88,0,0,1,0,.23s0,.09,0,.13a.53.53,0,0,1-.11.21,1,1,0,0,0-.06.18.66.66,0,0,0,0,.14,1.34,1.34,0,0,0,.26.64c.14.15.27.32.49.33a1.45,1.45,0,0,0,.36,0,.69.69,0,0,1,.25,0,1.18,1.18,0,0,1,.2,0c.06,0,.1.1.14.14a.49.49,0,0,0,.15.14,3.21,3.21,0,0,1,.3.21.81.81,0,0,1,.14.12.27.27,0,0,0,.07.08c.11.08.3,0,.43.08a1.14,1.14,0,0,1,.4.19l.14.12.05.09s.06.05.08.08.08.11.13.16a.75.75,0,0,0,.25.13h.07c.07,0,.08,0,.12-.08a.64.64,0,0,0,.14-.3,2.78,2.78,0,0,0,0-.5.51.51,0,0,1,.08-.38A.59.59,0,0,1,1007,542.13Z" transform="translate(-933.35 -508.78)"/><path class="cls-3" d="M1013,554.31h0c-.07,0-.12.13-.18.18l-.14.1-.16,0s-.17.05-.2,0,0-.09,0-.1a.3.3,0,0,1,0-.1.58.58,0,0,0,0-.18c0-.12.07-.23.08-.35a.93.93,0,0,0,0-.23v-.43a.75.75,0,0,0,0-.15,1.41,1.41,0,0,1-.06-.22.61.61,0,0,1,0-.19,3.58,3.58,0,0,1,.11-.35c0-.07.07-.15,0-.23a.69.69,0,0,0-.07-.15,1.15,1.15,0,0,1-.06-.17,1,1,0,0,1-.1-.4,6.34,6.34,0,0,0,0-.76,1.42,1.42,0,0,1,0-.2.92.92,0,0,1,0-.29l.06-.2a.93.93,0,0,0,.05-.1.09.09,0,0,0,0-.05l0,0a.13.13,0,0,0,0-.06s0,0-.07-.08a.32.32,0,0,1,0-.09,1.53,1.53,0,0,1,0-.37,3.81,3.81,0,0,0-.07-.47,1.17,1.17,0,0,1,0-.27v-.16a.74.74,0,0,0-.08-.29.51.51,0,0,1-.07-.15,1.06,1.06,0,0,0-.06-.19l-.08-.16a.49.49,0,0,1,0-.17,1.14,1.14,0,0,0,0-.26.69.69,0,0,0-.16-.29.68.68,0,0,1-.14-.23.53.53,0,0,1,0-.18,1.52,1.52,0,0,0,0-.21.9.9,0,0,0,0-.23c0-.13-.17-.23-.27-.3a.52.52,0,0,1-.1-.18,1.4,1.4,0,0,0-.09-.17c0-.08-.1-.13-.14-.21a2.53,2.53,0,0,0-.12-.23.81.81,0,0,0-.25-.36s-.16,0-.17,0,0,.08.06.1a1.34,1.34,0,0,1,.11.14,1.25,1.25,0,0,1,.07.26,1,1,0,0,0,.13.3c.08.11.2.17.28.28s.06.29.09.44.22.39.18.62-.08.28-.11.42a1.85,1.85,0,0,0,0,.23.54.54,0,0,0,0,.28c0,.06.09.1.12.15a1.57,1.57,0,0,1,.12.3,1.46,1.46,0,0,1,.08.59c0,.21-.06.42-.06.63s.07.28.09.43l0,.28a4.63,4.63,0,0,0,.07.52c.07.43.18.85.29,1.28a.32.32,0,0,1,0,.14.29.29,0,0,1-.07.12,1.3,1.3,0,0,0-.08.17.67.67,0,0,0,0,.37,3.81,3.81,0,0,1,.07.47c0,.2,0,.4,0,.6a4.86,4.86,0,0,0,.07.55,1.75,1.75,0,0,1,0,.4c0,.14,0,.28,0,.42a1.07,1.07,0,0,0,0,.25.4.4,0,0,0,.06.22.52.52,0,0,1,.1.11.2.2,0,0,1,0,.17,2.07,2.07,0,0,0,0,.22c0,.06,0,.07.05.1l.16.08c.08,0,.11,0,.14-.06s0-.15,0-.22a.7.7,0,0,1,.24-.32h0c-.08.42-.18.84-.28,1.25" transform="translate(-933.35 -508.78)"/><path class="cls-3" d="M1012.39,557.17a.86.86,0,0,1-.09.27l-.08,0a1.79,1.79,0,0,0-.13.14,1.28,1.28,0,0,0-.23.45c0,.08-.06.18-.11.26s-.09.09-.12.15a.59.59,0,0,0,0,.26c0,.13,0,.26-.06.39s-.14.36-.17.57a.68.68,0,0,1-.07.32,2.5,2.5,0,0,1-.22.24,2.19,2.19,0,0,0-.21.4,4.7,4.7,0,0,0-.12.51c-.06.16-.24.27-.35.4a2.11,2.11,0,0,0-.26.4c-.07.15-.17.28-.24.42a2.54,2.54,0,0,1-.47.73,4.33,4.33,0,0,0-.46.5,1.89,1.89,0,0,0-.25.54,2.83,2.83,0,0,1-.14.52c-.07.15-.2.28-.28.43a6.36,6.36,0,0,0-.69,1.44,2.94,2.94,0,0,1-.5,1,3.25,3.25,0,0,0-.33.57c-.15.24-.32.47-.47.72s-.22.34-.31.52-.15.35-.22.52a2.77,2.77,0,0,1-.2.53,1.24,1.24,0,0,1-.41.3,6.22,6.22,0,0,0-.56.32,2.32,2.32,0,0,1-.41.22,1,1,0,0,0-.36.25,2.63,2.63,0,0,0-.35.52,2.41,2.41,0,0,1-.56.71c-.2.16-.47.22-.66.39a1.53,1.53,0,0,0-.31.67c-.12.4-.54.52-.88.67a5.12,5.12,0,0,0-1,.78,9.86,9.86,0,0,1-.87.7,2.23,2.23,0,0,0-.44.29,1.8,1.8,0,0,0-.25.4,1.55,1.55,0,0,1-.51.51,2.37,2.37,0,0,1-.53.18,4.88,4.88,0,0,1-.64.23,1,1,0,0,0-.29.08,3.12,3.12,0,0,0-.35.25,5.45,5.45,0,0,1-.74.61,1.49,1.49,0,0,1-.73.14c-.1,0-.48.14-.53,0s.13-.1.17-.16a3.14,3.14,0,0,0,.24-.39,3.39,3.39,0,0,0,.23-.34c0-.08,0-.17.09-.25.14-.3.22-.64.52-.82.15-.09.26-.13.34-.3s.13-.53.27-.78a2.21,2.21,0,0,1,.3-.45,2.9,2.9,0,0,0,.39-.53,3,3,0,0,0,.13-.68,4.72,4.72,0,0,1,.25-.72,3.1,3.1,0,0,1,.26-.47,1,1,0,0,0,.19-.66,1.63,1.63,0,0,1,.16-.79c.11-.19.28-.27.43-.41a.9.9,0,0,0,.21-.27.86.86,0,0,0,0-.28.7.7,0,0,1,0-.29,1.39,1.39,0,0,1,.21-.27,3.4,3.4,0,0,0,.32-.34,3,3,0,0,1,.23-.27,2,2,0,0,0,.49-.78c.23-.72.91-1.32.83-2.12,0-.21,0-.42-.08-.64a5.2,5.2,0,0,1,0-1,1.65,1.65,0,0,0,0-.7.75.75,0,0,0-.13-.25c-.05-.06-.11-.1-.15-.16a1,1,0,0,1-.11-.62,1.54,1.54,0,0,1,.1-.77c.07-.11.22-.14.33-.18a1.83,1.83,0,0,0,.25-.08.22.22,0,0,0,.06-.14,2.9,2.9,0,0,0,0-.51,1.2,1.2,0,0,1,.14-.5c.08-.13.27-.24.25-.42a.61.61,0,0,0-.09-.18,1.23,1.23,0,0,0-.14-.25c-.08-.09-.31,0-.42,0a5,5,0,0,1-1,0,.48.48,0,0,1-.38-.33c0-.13-.07-.27-.11-.4s0-.17-.14-.18a1.5,1.5,0,0,0-.3,0h-.48a3,3,0,0,0-.58.11c-.09,0-.19,0-.29,0a2.56,2.56,0,0,1-.27,0c-.1,0-.18,0-.29,0a.71.71,0,0,0-.36.15c-.07.05-.14.08-.21.14s-.08.09-.15.11a.86.86,0,0,1-.42,0,6.43,6.43,0,0,0-1.16,0,1.74,1.74,0,0,0-.51.06,4,4,0,0,1-.46.14l-.18,0-.21,0a.5.5,0,0,1-.35-.09c-.11-.1-.16-.25-.3-.31a.87.87,0,0,0-.25-.1,1.34,1.34,0,0,0-.2,0c-.17,0-.21-.14-.34-.22a1.22,1.22,0,0,1-.19-.12,1.34,1.34,0,0,1-.2-.21.55.55,0,0,1-.16-.31c0-.1-.05-.11-.1-.19s-.12-.32-.25-.44-.33-.28-.49-.44a.29.29,0,0,0-.18-.1c-.08,0-.12,0-.15-.11a3.7,3.7,0,0,0-.21-.33.44.44,0,0,1-.06-.16c0-.11,0-.24,0-.34s-.16-.14-.26-.2a.43.43,0,0,1-.14-.16c-.08-.1,0-.17,0-.29,0-.32-.4-.23-.56-.43,0,0,0-.09,0-.15a.3.3,0,0,0,0-.16.62.62,0,0,1,0-.3v-.79a2.19,2.19,0,0,1,0-.27,1.49,1.49,0,0,1,.17-.36.89.89,0,0,0,.06-.4,1.23,1.23,0,0,0-.07-.42c0-.11-.13-.21-.16-.32a.4.4,0,0,1,.12-.33.73.73,0,0,0,.17-.18,1.15,1.15,0,0,0,.14-.47,2.42,2.42,0,0,0,.1-.36c0-.17-.2-.32-.31-.42s-.13-.09-.15-.17a1.41,1.41,0,0,1,0-.2l.15-.46c.26-.27.29-.69.47-1s.43-.43.59-.68a1.36,1.36,0,0,0,.19-.62,1.93,1.93,0,0,1,.27-.88,3,3,0,0,1,.53-.54,6.43,6.43,0,0,1,1-.52.6.6,0,0,0,.29-.3,1.69,1.69,0,0,0,.3-1.14c0-.16,0-.19.08-.32a3.5,3.5,0,0,0,.37-.62,1.09,1.09,0,0,0,.15-.58.33.33,0,0,1,0-.24c.08-.12.24-.18.35-.26a2.13,2.13,0,0,0,.31-.29,7.33,7.33,0,0,0,.53-.9c.18-.31.08-.53-.07-.83s-.12-.28-.3-.31-.28,0-.42-.05a.71.71,0,0,1-.44-.24,1.92,1.92,0,0,1-.23-.42,1.64,1.64,0,0,1-.23-.48,2.46,2.46,0,0,0-.16-.59.48.48,0,0,1-.05-.35c0-.09.12-.17.16-.27a.68.68,0,0,0,.08-.46c0-.07-.12-.1-.15-.17s0-.33,0-.5-.26-.25-.27-.43.28-.39.51-.38a6.91,6.91,0,0,0,.9-.11c.23,0,.45-.06.68-.09a1.4,1.4,0,0,1,.76,0c.14.07.23.22.37.28a.7.7,0,0,0,.38,0c.22-.07.24-.22.2-.43a1.47,1.47,0,0,0-.23-.58.55.55,0,0,1-.16-.32,1.72,1.72,0,0,1,0-.39c0-.24-.06-.32-.21-.5a.38.38,0,0,0-.19-.16.88.88,0,0,1-.24-.11c-.07-.07,0-.23-.09-.31s-.12-.13-.23-.17a1.44,1.44,0,0,1-.5-.24c-.05-.05-.06-.08-.13-.11a1.42,1.42,0,0,1-.2,0c-.09,0-.08-.06,0-.15s.06-.1.16-.12.33,0,.48,0l.52-.11a4.34,4.34,0,0,1,.52-.07c.1,0,.27,0,.35-.09a.69.69,0,0,0,.12-.31,1.18,1.18,0,0,0,0-.42c0-.09,0-.32-.08-.38s-.1,0-.15,0a.12.12,0,0,0-.1,0,.58.58,0,0,1-.19,0l-.26,0a2,2,0,0,0-1,.46,1,1,0,0,1-.37.18.83.83,0,0,1-.51-.1c-.2-.21.14-.49.13-.7s-.34-.05-.49-.12.15-.23.18-.34a.65.65,0,0,0,0-.31c0-.15-.09-.23-.12-.37a.68.68,0,0,1,.07-.37,1.51,1.51,0,0,0,.2-.35,1.22,1.22,0,0,0,.09-.42c0-.14,0-.24-.18-.29a2.15,2.15,0,0,1-.36-.11c-.12-.06-.18-.24-.31-.27s-.18,0-.24,0c-.22.06-.22.16-.09.32s.1.08.09.15-.15.21-.2.3a1.36,1.36,0,0,0-.16.65c0,.18.1.25,0,.42a1.48,1.48,0,0,1-.66.5,1.1,1.1,0,0,1-.56.11c-.37-.06-.28-.37-.46-.61s-.28-.18-.38-.31a.26.26,0,0,1,0-.33c.09-.17.25-.3.33-.46s0-.17,0-.27c0-.5.71-.36,1-.4s.82-.3.61-.72c-.07-.13-.21-.2-.31-.29a.88.88,0,0,1-.19-.27.42.42,0,0,1,.19-.56,1.59,1.59,0,0,1,.35-.22.54.54,0,0,1,.33-.08c.08,0,.09.1.13.16s.23.21.39.31a.61.61,0,0,1,.3.27c.08.21-.07.47,0,.68s.52.42.75.58a1.8,1.8,0,0,1,.73.88,1,1,0,0,0,.42.59,3.92,3.92,0,0,0,.36.16c.16.07.59.23.6.43s-.23.37-.12.58a.39.39,0,0,0,.38.24.5.5,0,0,0,.43-.32c.07-.15.14-.3.31-.34s.4-.09.47-.34c0-.08,0-.14.08-.2s.16,0,.22-.09a1.14,1.14,0,0,0,.31-.49.8.8,0,0,0,.05-.38,2,2,0,0,0-.22-1,4.21,4.21,0,0,0-.28-.45c-.08-.12-.13-.34,0-.44a.87.87,0,0,1,.31-.1.44.44,0,0,1,.32.27c.07.16,0,.34.06.5a1,1,0,0,0,.18.43c.25.24.65,0,.94.14a.37.37,0,0,1,.25.3c0,.13,0,.14.12.19a1.45,1.45,0,0,0,.29,0,3.61,3.61,0,0,0,.93.06,2.42,2.42,0,0,0,.47-.07.65.65,0,0,1,.19,0,1.35,1.35,0,0,0,.49-.07.35.35,0,0,0,.09-.47c-.09-.19-.28-.32-.35-.52a1,1,0,0,1-.08-.7c.08-.17.2-.1.34,0s.34.15.32-.08a1,1,0,0,0-.29-.65c-.13-.11-.34-.16-.41-.33s.15-.28.29-.35.4-.2.36-.46-.38-.08-.5-.07a4.29,4.29,0,0,1-.62,0H1001a1.87,1.87,0,0,1-.41,0c-.13,0-.21-.17-.29-.27a3,3,0,0,1-.42-.58c-.06-.15-.05-.31-.15-.44s-.36-.25-.51-.44a.74.74,0,0,1-.09-.65,2,2,0,0,0,0-.84A1.25,1.25,0,0,0,999,520c-.09-.14-.14-.13-.27-.09s-.45.1-.54.26,0,.1,0,.17a3.37,3.37,0,0,1,.1.34,1.8,1.8,0,0,0,.16.38c.05.08.08.11,0,.2s-.1.17-.07.31a2.63,2.63,0,0,1,.07.49c0,.15,0,.3,0,.45s0,.37.15.48.25.17.38.23.35.11.47.29a1.87,1.87,0,0,1,.24.38,1.31,1.31,0,0,1,.09.34,1.31,1.31,0,0,0,0,.28.54.54,0,0,0,.19.3,3.44,3.44,0,0,1,.28.36s.18.14.15.22-.11.07-.15.12.15.18.15.33a.48.48,0,0,1-.2.44.75.75,0,0,1-.35.16.42.42,0,0,0-.25.14c-.06.08-.07.2-.18.22s-.13,0-.19-.08-.22-.08-.26-.15,0-.13,0-.2a1.07,1.07,0,0,0,.1-.22c.06-.21-.08-.23-.25-.3a1.46,1.46,0,0,1-.49-.31l-.25-.22c-.08-.07-.13-.16-.21-.22a.29.29,0,0,1-.12-.1.61.61,0,0,1-.07-.14c-.13-.21-.23-.41-.51-.24-.1.06-.13.16-.25.22a1.92,1.92,0,0,0-.31.18c-.12.11-.17.19-.34.18A.3.3,0,0,1,996,525a1.24,1.24,0,0,0-.12-.23c-.1-.09-.27,0-.39,0s-.15-.25-.18-.42a2.2,2.2,0,0,0-.25-.69,2.41,2.41,0,0,0-.33-.44,1.22,1.22,0,0,1-.2-.35.5.5,0,0,1-.08-.27,1.91,1.91,0,0,1,.12-.47c.1-.22.36-.28.36-.55a3.53,3.53,0,0,1,0-.46,1,1,0,0,1,.07-.25l.16-.26a1,1,0,0,0,.1-.18c0-.11,0-.16-.1-.25a.57.57,0,0,1-.12-.42,4.51,4.51,0,0,0,0-.52.41.41,0,0,0-.11-.25c-.08-.06-.17-.08-.22-.17s0-.29,0-.42a.67.67,0,0,1,.08-.17.49.49,0,0,0,0-.27c-.07-.19-.35-.32-.37-.53s.26-.33.42-.37a1.31,1.31,0,0,0,.57-.24s0-.06.09-.07h.47c.25,0,.3.23.49.33a.52.52,0,0,0,.3.06.87.87,0,0,1,.56.2c.06.06.09.13.18.17s.15,0,.23,0,.14.19.24.27a.61.61,0,0,0,.23.11h.13l.26,0a1.07,1.07,0,0,1,.27.16,1.34,1.34,0,0,0,.27.07.76.76,0,0,1,.35.24,2.62,2.62,0,0,0,.57.42,2.07,2.07,0,0,1,.25.15s.1.09.15.09l.15.19a.33.33,0,0,0,.09.23c.06.07,0,.15-.11.17a.13.13,0,0,1-.09,0s-.09,0-.12,0l-.06,0-.06,0a.19.19,0,0,1-.08-.07.63.63,0,0,0-.22-.18l-.07,0h-.07a.55.55,0,0,1-.18,0l-.14-.08-.07-.07a.05.05,0,0,1,0,0l0,0a.38.38,0,0,0-.15,0,.13.13,0,0,0-.09.06.11.11,0,0,0,0,0s.05,0,.07,0a.71.71,0,0,0,.15.08s.07,0,.12,0l.08,0,.11,0,.06,0,0,0,.19.12a.25.25,0,0,1,.11.17.49.49,0,0,0,0,.12s0,.09.09.12a.68.68,0,0,0,.26.12l.3,0,.12,0s0,.05.07.08l.15.17.07.07a.13.13,0,0,1,0,0l0,.07a.64.64,0,0,0,.11.16c.06,0,.14.07.19.12s.06.11.12.11.07-.14.08-.19a.34.34,0,0,0-.06-.2l-.13-.23-.15-.21a.83.83,0,0,1-.11-.15l-.07-.12,0-.09a.88.88,0,0,0-.05-.15l0-.09,0-.06v-.18a1.62,1.62,0,0,1,0-.22.21.21,0,0,1,0-.11,38.67,38.67,0,0,0-54.9,2.59c.24-.27.49-.53.74-.8l.12,0c.14,0,.29,0,.43-.08s.32-.09.33-.23,0-.12,0-.17.13-.1.21-.12a.36.36,0,0,0,.16-.11.56.56,0,0,1,0-.08,1.41,1.41,0,0,1,.23-.18c.09,0,.2-.09.29-.15a3.79,3.79,0,0,0,.58-.48,1.4,1.4,0,0,0,.23-.3,3.13,3.13,0,0,1,.21-.34,1.44,1.44,0,0,1,.36-.38c.09-.06.13-.1.24,0s.22.11.23.25a.5.5,0,0,0,0,.27c.12.22.48-.2.66-.05a.71.71,0,0,0,.09.07c.05,0,.11,0,.16,0l.68-.14c.17,0,.41-.13.57,0l.23.17a.92.92,0,0,0,.58.13.6.6,0,0,0,.36-.24c.07-.09.1-.2.17-.29a1.1,1.1,0,0,1,.47-.32.9.9,0,0,0,.35-.18,3.15,3.15,0,0,0,.31-.41,1.24,1.24,0,0,0,.16-.3,1.07,1.07,0,0,0,0-.25.3.3,0,0,1,.2-.3,1.81,1.81,0,0,0,.41-.22s.1-.11.16-.15.3-.18.41-.14.07.17.05.24a1.44,1.44,0,0,1-.13.4,7.71,7.71,0,0,0-.61.92c0,.09-.07.26.08.23l.23-.05.19,0h.06c.05,0,0,.18,0,.21a.85.85,0,0,1-.06.19c0,.07-.08.06-.14.1a.8.8,0,0,0-.13.13,1.81,1.81,0,0,0-.18.21s-.1.16,0,.2.06,0,.08,0a1.55,1.55,0,0,0,.22-.12.87.87,0,0,1,.37-.19.65.65,0,0,0,.22-.08,3.66,3.66,0,0,0,.49-.31,1.23,1.23,0,0,0,.26-.33,1.33,1.33,0,0,1,.21-.26.81.81,0,0,1,.29-.19,1,1,0,0,1,.3-.08c.07,0,.09,0,.12.08a.82.82,0,0,1,.11.17.38.38,0,0,1-.21.46l-.19.15a1,1,0,0,0-.11.1c0,.06,0,.12,0,.18s0,.17-.13.23l-.38.19-.34.14a2,2,0,0,0-.48.33.3.3,0,0,1-.14.1c-.06,0-.14-.06-.2-.08s-.22-.07-.28,0a.23.23,0,0,0-.08.11l-.12.17c-.05.07-.09.16-.16.2a.71.71,0,0,1-.35.1l-.41,0c-.1,0-.19,0-.29.06l-.17,0a.2.2,0,0,0-.1.12c0,.06,0,.11,0,.16a.39.39,0,0,1,0,.26.43.43,0,0,1-.17.21l-.22.19s-.13.11-.15.17a.41.41,0,0,0,0,.11.49.49,0,0,1,0,.17s-.09-.06-.14-.07h-.06a.75.75,0,0,1-.15,0,2.13,2.13,0,0,1-.27-.07.85.85,0,0,1-.17-.06c-.08,0-.11-.06-.19,0s-.17.1-.24.16-.06.1-.07.18a.66.66,0,0,1-.06.2c0,.06,0,.11-.06.15l-.06,0a1.34,1.34,0,0,1-.24.09l-.24.07a.18.18,0,0,0-.1,0,.64.64,0,0,0-.13.18l-.14.28c0,.08-.06.16-.1.24a.71.71,0,0,1-.34.3c-.19.11-.4.21-.6.31a.23.23,0,0,0-.11.09s-.1.08-.14.14a2.09,2.09,0,0,1-.14.17c-.1.12-.26.3-.22.48s.16.18.23.29a.47.47,0,0,1,0,.21.5.5,0,0,1-.06.24c0,.05-.07.09-.1.15a1.8,1.8,0,0,1-.08.21.25.25,0,0,0,0,.19s0,.1,0,.12l.08,0a.29.29,0,0,0,.1,0h.1a1.33,1.33,0,0,1,.4,0,.4.4,0,0,1,.18.1l.08.15.07.11a.42.42,0,0,0,0,.1.3.3,0,0,1,0,.1s0,0,.05,0,.17.19.32.19l.14.12a.41.41,0,0,1,.15.07l.06.12a.35.35,0,0,0,.16.16l.26.05a5.58,5.58,0,0,0,.59.1.3.3,0,0,1,.12,0c.05,0,0,.13,0,.18a.9.9,0,0,1-.08.28c-.05.11-.13.22-.18.33a2.3,2.3,0,0,0-.12.34,1,1,0,0,0,0,.52c0,.12.11.15.21.23a1,1,0,0,1,.17.23c0,.07.1.2.18.23s.12,0,.18,0a.28.28,0,0,1,.12,0,.28.28,0,0,0,.2,0,1.07,1.07,0,0,0,.5-.83c0-.28,0-.58.06-.86a.6.6,0,0,1,.2-.32c.12-.09.25-.15.36-.24a4.91,4.91,0,0,0,.74-.7,2.31,2.31,0,0,0,.41-.65,1.39,1.39,0,0,0,0-.61c0-.09,0-.13-.07-.18s-.12-.07-.18-.13.06-.34.19-.44a3,3,0,0,0,.39-.31.79.79,0,0,0,.17-.46,3.68,3.68,0,0,1,0-.47c.05-.17.23-.28.34-.41a.9.9,0,0,0,.16-.42c0-.12,0-.21.17-.25a1.93,1.93,0,0,1,.41-.06c.22,0,.43.07.66.07a2,2,0,0,1,.34,0c.14,0,.33,0,.42.13s.16.25.25.36a.25.25,0,0,0,.16.11,2.64,2.64,0,0,0,.28,0,.53.53,0,0,1,.49.16c.09.12,0,.24-.05.34s-.14.14-.13.26a.56.56,0,0,1,0,.34,1.4,1.4,0,0,1-.09.17.07.07,0,0,0,0,.06.42.42,0,0,1-.14.18l-.18.15s-.08,0-.07.1a.3.3,0,0,0,.26.07l.27,0a.27.27,0,0,1,.13,0c.07,0,.09.06.13.11s.15.15.24.14a.52.52,0,0,0,.16-.06l.22-.11a1.6,1.6,0,0,0,.26-.26.41.41,0,0,1,.2-.14l.26-.07a.85.85,0,0,0,.23-.12.51.51,0,0,0,.18-.21.4.4,0,0,1,.22-.16c.06,0,.14-.06.21,0s.07.16.08.22,0,.17.06.26a.54.54,0,0,0,.22.23.19.19,0,0,1,.09.11s0,.07,0,.1a.38.38,0,0,0,.1.2,1.3,1.3,0,0,0,.18.15.75.75,0,0,1,.2.42.68.68,0,0,1,0,.42c-.07.13-.33.21-.26.39a1.4,1.4,0,0,0,.3.39,1.34,1.34,0,0,1,.18.28s0,.15.08.17.06,0,.08,0h.12l.47.1a1,1,0,0,1,.38.12s.07.08,0,.11a.65.65,0,0,1-.2,0,1.17,1.17,0,0,0-.2.06,1.33,1.33,0,0,0-.48.33s-.1.09-.1.14.06,0,.09,0c.22-.06.45-.08.66-.16a.82.82,0,0,1,.27,0,.61.61,0,0,1,.24,0c.07,0,0,.08,0,.14s.12,0,.17,0a2.44,2.44,0,0,1,.24-.1.45.45,0,0,1,.23,0c.17,0,.2.2.18.36a.65.65,0,0,1-.06.24c0,.05-.07.07-.09.11a.21.21,0,0,0,0,.2.93.93,0,0,0,0,.1,2.29,2.29,0,0,1,.1.23c0,.06.06.11,0,.14l-.31.12-.28.06a1.36,1.36,0,0,0-.35,0c-.19,0-.34.17-.52.23s-.42.06-.61.14l-.4.22a1.55,1.55,0,0,1-.29.14,1,1,0,0,1-.25,0,.39.39,0,0,0-.15,0,1.87,1.87,0,0,0-.34.08,3.12,3.12,0,0,1-.53.11,1.27,1.27,0,0,1-.34,0l-.21-.06-.19,0-.23,0a4.51,4.51,0,0,1-.53.1,3.84,3.84,0,0,0-.48,0,1.54,1.54,0,0,0-.42.17l-.26.14-.11.08-.23.13-.53.35a2.07,2.07,0,0,1-.34.15l-.17.07-.12.1a1.58,1.58,0,0,0-.23.22,1.27,1.27,0,0,0-.13.19,1.88,1.88,0,0,1-.24.25.38.38,0,0,0-.16.25s0,.1,0,.13.1,0,.13,0l.39-.33s.06,0,.1,0l.08-.07a.91.91,0,0,1,.16-.11A1.13,1.13,0,0,0,958,532a.37.37,0,0,1,.14,0c.09,0,.13-.08.19-.14s0-.07.08-.1l.14-.08.18-.09a.58.58,0,0,1,.14,0,3.44,3.44,0,0,0,.53-.3l.16-.08h.12l.33,0h.15c.05,0,.1,0,.15,0l.15,0s.08,0,.11.05,0,.28-.06.36l-.12.1a1.09,1.09,0,0,0-.17.13.32.32,0,0,1-.1.1.45.45,0,0,1-.16,0,.61.61,0,0,0-.3,0s-.08,0-.07.08.06.1.1.13.13.13.21.14a.27.27,0,0,0,.09,0l.1,0a.7.7,0,0,0,.14,0h.14a.23.23,0,0,1,.14.24.28.28,0,0,1-.06.15s-.07.07-.08.11a.29.29,0,0,0,.08.25.54.54,0,0,0,.18.11c.05,0,0,0,.08.09s.19,0,.28.07a.75.75,0,0,0,.15.09l.11,0a1.54,1.54,0,0,0,.31,0c.13,0,.25,0,.31-.14a.2.2,0,0,0,0-.13.09.09,0,0,1,.07-.1l.19-.07c.1,0,.2-.06.24-.17a.24.24,0,0,1,.1-.1l.09-.07a.13.13,0,0,1,.19.09.54.54,0,0,1,0,.18c0,.06-.06.12,0,.18s0,.07.1.1a.11.11,0,0,1,0,.13c0,.12-.15.12-.25.15a.24.24,0,0,1-.12,0h-.07l-.08,0s-.06.08-.1.11l-.1.22a1.46,1.46,0,0,0-.34.1,3.72,3.72,0,0,1-.48.11,4.3,4.3,0,0,0-.79.18,1.09,1.09,0,0,0-.37.3c-.09.11-.32.34-.47.23s0-.07-.07-.09a.21.21,0,0,0-.11,0,.38.38,0,0,1-.29-.12.64.64,0,0,1,.1-.13.9.9,0,0,1,.19-.15c.16-.1.33-.17.49-.27s.18-.12.21-.22,0-.13,0-.16-.07,0-.1,0l-.18.09a1.47,1.47,0,0,1-.66.13,1.16,1.16,0,0,0-.47.17c-.08.05-.15.15-.25.18h-.2a1.09,1.09,0,0,0-.25,0,.72.72,0,0,0-.19.11,2.94,2.94,0,0,1-.51.23.87.87,0,0,0-.35.13.82.82,0,0,0-.29.35c0,.09,0,.18,0,.27s-.12.11-.17.18a.81.81,0,0,0-.12.29.28.28,0,0,0,0,.18c0,.08.08.14.11.22s0,.09,0,.1a4.74,4.74,0,0,1-.65,0,1.75,1.75,0,0,0-.51,0,.69.69,0,0,0-.31.2s.1.08.13.11.1.11,0,.17-.26.07-.38,0a.54.54,0,0,0-.22,0,.67.67,0,0,0-.17.06c-.13.08-.06.22-.06.34a.43.43,0,0,1-.07.25.65.65,0,0,1-.3.18c-.08,0-.25,0-.3.06s0,.16,0,.22a.36.36,0,0,1-.06.2c0,.08-.06.27-.17.25s-.15,0-.17-.06,0-.13,0-.18a.74.74,0,0,1,0-.21,1.22,1.22,0,0,0,0-.17s0-.13-.08-.13-.15.11-.19.16a1.21,1.21,0,0,1-.21.24c-.05.06-.16.13-.16.22s0,.15.06.22a.7.7,0,0,1,0,.32,1.84,1.84,0,0,0-.05.25.33.33,0,0,0,0,.17.34.34,0,0,0,.15.14c.15.1.34.21.26.41a.62.62,0,0,1-.16.2.2.2,0,0,0-.06.19.36.36,0,0,1-.07.24.47.47,0,0,1-.18.12l-.21.11a2.41,2.41,0,0,1-.25.08c-.08,0-.09.07-.12.15a1.82,1.82,0,0,1-.15.27c0,.06-.13.07-.19.1a2.68,2.68,0,0,0-.28.18,4.33,4.33,0,0,0-.78.57,2.88,2.88,0,0,0-.4.52,1.94,1.94,0,0,0-.33.8,1.88,1.88,0,0,0,.05.67,2.8,2.8,0,0,1,.06.28c0,.07.06.14.08.22a.79.79,0,0,1,.06.22V545a4.17,4.17,0,0,0,0,.5,5.35,5.35,0,0,0,.11.55c0,.1.07.19.09.29s0,.18.09.27a.31.31,0,0,1,.07.25.22.22,0,0,1-.13.12l-.24.15a.21.21,0,0,1-.15,0,.34.34,0,0,1-.24-.18,2.23,2.23,0,0,1-.16-.43c-.06-.14-.12-.29-.19-.43s-.1-.15-.14-.23,0-.1-.07-.15a1.69,1.69,0,0,1-.17-.29.31.31,0,0,1,0-.28,1.21,1.21,0,0,0,.1-.14.28.28,0,0,0,0-.18.44.44,0,0,0-.08-.2.58.58,0,0,0-.11-.15s-.1,0-.12-.08a.23.23,0,0,1,0-.14c0-.11,0-.28-.17-.27s-.09,0-.13.06l-.12,0-.12.06a.5.5,0,0,1-.27.05s0,0-.09-.05-.09,0-.13-.06a.29.29,0,0,1-.1-.18.54.54,0,0,0,0-.22c0-.05,0-.07-.09-.07l-.16,0a2.61,2.61,0,0,0-.27.06l-.14,0-.33,0-.49,0a.25.25,0,0,0-.22.08s-.17.1-.16.15.09,0,.12,0,.06,0,.09.07a1.47,1.47,0,0,1,.1.13c.05.06,0,.17,0,.24s-.08.13-.16.1-.11-.11-.21-.11h-.23l-.18,0h-.24c-.07,0-.07-.05,0-.1a.18.18,0,0,0,0-.2c-.06-.08-.19,0-.29,0h-.4l-.14,0a.3.3,0,0,0-.25.1.9.9,0,0,0-.2.27.67.67,0,0,1-.06.12l-.18.12a.81.81,0,0,1-.31.15s-.11,0-.13.06a.23.23,0,0,0,0,.14,1.42,1.42,0,0,0,0,.2.44.44,0,0,1-.06.25l-.07.11c0,.06-.09.1-.12.15s0,.35,0,.5a1.34,1.34,0,0,1,0,.2.66.66,0,0,0,0,.2.77.77,0,0,1-.06.45c-.07.09-.21.12-.18.25a.66.66,0,0,1,.06.2,1.47,1.47,0,0,1,0,.21c0,.08-.07.13-.09.21s0,.07,0,.11l0,.09a1.47,1.47,0,0,0,0,.21l.11.28c0,.1,0,.2,0,.3a.39.39,0,0,0,0,.15,1.36,1.36,0,0,0,.11.25,1.11,1.11,0,0,1,.09.19l0,.14a.65.65,0,0,0,.13.38s.08.06.1.1,0,0,0,.07l0,.06c0,.06,0,.14.06.21l0,.13a.19.19,0,0,0,0,.1l.06.08.12.13a.64.64,0,0,0,.13.15l.1.09.31.26a.39.39,0,0,0,.49,0s.06-.07.12-.08a.25.25,0,0,1,.12,0h.18s.09,0,.12,0,0-.07.05-.11a.22.22,0,0,1,.12-.13l.13-.09a.58.58,0,0,0,.1-.12,1.36,1.36,0,0,0,.11-.25.55.55,0,0,0,.06-.22v-.23c0-.17,0-.39.21-.47a.4.4,0,0,1,.15,0,1.28,1.28,0,0,0,.27,0,1.68,1.68,0,0,0,.3-.15l.14,0c.1,0,.21,0,.32,0s.12,0,.14.07a.45.45,0,0,1,0,.23.57.57,0,0,1,0,.13s0,0,0,.07a.46.46,0,0,0-.07.16,1.43,1.43,0,0,0-.08.22,1.52,1.52,0,0,1-.06.2.61.61,0,0,0,0,.18c0,.07,0,.14,0,.2a.5.5,0,0,1,0,.12.13.13,0,0,1,0,.08.35.35,0,0,1-.06.14s0,.08,0,.09-.09,0-.13,0,0,0,0,.08l0,.06v.69a1.23,1.23,0,0,1,0,.47.5.5,0,0,0,0,.13v.15a.52.52,0,0,0,0,.18.09.09,0,0,0,.1.06l.17,0h.44a5.28,5.28,0,0,0,.56,0l.26,0a1.66,1.66,0,0,0,.22,0,.36.36,0,0,1,.25,0,.83.83,0,0,1,.15.11c.05,0,.12.09.16.14s0,.06.09.07l.07,0a.46.46,0,0,1,.08.13s0,.06,0,.09a1.18,1.18,0,0,0,0,.2,1.15,1.15,0,0,1,0,.19,1.93,1.93,0,0,1,0,.24,1.5,1.5,0,0,0,0,.22,1.7,1.7,0,0,1,0,.22.53.53,0,0,0,0,.12l.07.21a2.44,2.44,0,0,1,0,.27v.3c0,.06,0,.12,0,.17a.57.57,0,0,1,0,.13.48.48,0,0,0,0,.17l0,.08a.24.24,0,0,0,.06.08l.09,0,.06.05.15.14a.27.27,0,0,0,.07.08l.07.06c.05.06.13.11.14.19s0,.09.05.14a.27.27,0,0,0,.13.13l.08,0h.48s.06,0,.08,0l0,0,.08,0,.07,0,.11,0a.33.33,0,0,0,.17-.12.25.25,0,0,0,0-.07s0,0,0,0,.12,0,.16.07.12,0,.15,0l.18.08a.24.24,0,0,1,.14.12,1.31,1.31,0,0,1,.08.21c.07.17.27.16.42.17a.79.79,0,0,1,.22.05h.05a.28.28,0,0,0,.13,0,1.76,1.76,0,0,0,.44-.5,4.53,4.53,0,0,0,.27-.48,1.22,1.22,0,0,0,.1-.24,1.85,1.85,0,0,1,0-.23c0-.07,0-.16.13-.17H954a.79.79,0,0,0,.22-.06,1.58,1.58,0,0,0,.47-.18l.17-.12a.36.36,0,0,1,.18-.1.55.55,0,0,1,.18,0l.18,0c.1,0,0,.17,0,.22a2.5,2.5,0,0,0-.07.26.36.36,0,0,0,0,.18,2,2,0,0,1,0,.23,1.49,1.49,0,0,0,0,.21.33.33,0,0,0,.08.18l.11.16a.22.22,0,0,0,.31.05.27.27,0,0,0,.15-.24c0-.08,0-.16,0-.24a1.22,1.22,0,0,1,0-.27c0-.08,0-.17.07-.21a.92.92,0,0,1,.46-.08.53.53,0,0,1,.25,0c.12.06.22.14.35.2l.18.06.14,0a1.38,1.38,0,0,0,.49.1,2.43,2.43,0,0,1,.66,0l.1,0,.13,0a1,1,0,0,0,.39.08h.21l.21,0,.26,0a1,1,0,0,1,.24,0l.22,0c.09,0,.17,0,.25.06a1.06,1.06,0,0,1,.19.06l.1,0a1.05,1.05,0,0,0,.38.12l.16,0a.15.15,0,0,1,.07,0c.13,0,.2.22.24.34s0,.1,0,.15,0,.05,0,.08a.3.3,0,0,0,0,.1.39.39,0,0,0,0,.15s.06,0,.09,0l.24,0,.27,0a1.14,1.14,0,0,1,.48.12l.12.06.09.08.27.27a.39.39,0,0,1,.12.19.3.3,0,0,0,0,.1.48.48,0,0,0,.09.11.73.73,0,0,0,.32.09.39.39,0,0,1,.21.08,1.8,1.8,0,0,1,.2.19s.07.11.11.15.08,0,.13,0h.41l.21,0a.78.78,0,0,1,.22,0,.31.31,0,0,0,.19,0l.15,0a.19.19,0,0,1,.13,0l.12,0a.18.18,0,0,1,.1,0s.1.08.16.11a.36.36,0,0,0,.2.06h.14a.8.8,0,0,1,.33.17.6.6,0,0,1,.12.11.58.58,0,0,0,.12.1l.08,0h.17a.35.35,0,0,1,.14.06,1.66,1.66,0,0,1,.14.13,1.18,1.18,0,0,0,.28.2l.14.05a.2.2,0,0,1,.1.08.54.54,0,0,1,.06.25c0,.09,0,.17,0,.25a.11.11,0,0,1,0,.06v.17a.16.16,0,0,0,0,.09l0,0,0,.07.13.13a.17.17,0,0,0,.12.06c.14,0,.44.12.31.28a.46.46,0,0,0-.1.18,1.15,1.15,0,0,0-.06.17c0,.06,0,.11,0,.17s-.2.08-.25.15a1.42,1.42,0,0,1-.24.25c-.08.06-.11.14-.18.2s-.08.15-.17.21a1,1,0,0,0-.23.22.09.09,0,0,0,.13.11c.07,0,.13-.11.2-.15a1,1,0,0,0,.16-.05.61.61,0,0,0,.15-.13,1.57,1.57,0,0,0,.19-.26c0-.06.07-.14.16-.14a1.32,1.32,0,0,0,.34,0,.9.9,0,0,0,.16,0,.33.33,0,0,1,.14,0,1.23,1.23,0,0,1,.25.14.26.26,0,0,1,.1.31c0,.11-.12.13-.21.19s-.08,0-.08.11,0,.08.06.09a.33.33,0,0,0,.14,0,2.65,2.65,0,0,0,.3-.11,1.24,1.24,0,0,0,.18-.14,2.91,2.91,0,0,1,.3-.17.13.13,0,0,1,.12,0l.09,0a.22.22,0,0,0,.18.08l.29,0a2.63,2.63,0,0,1,.49.06,1,1,0,0,1,.22.13c.08,0,.24.11.27.2a.45.45,0,0,1,0,.16.39.39,0,0,0,0,.15s0,.06.09.06a1.81,1.81,0,0,0,.23,0,2,2,0,0,1,.77,0h.09l.06,0a.49.49,0,0,0,.23.06l.09,0a.91.91,0,0,1,.17.09.66.66,0,0,0,.24,0h.5a1.21,1.21,0,0,1,.38,0,1.47,1.47,0,0,1,.31.15c.22.14.45.25.68.38l.53.33a.83.83,0,0,0,.29.16l.18,0,.33,0a.69.69,0,0,1,.25,0c.08,0,.06.13.06.21s0,.13,0,.19a.81.81,0,0,0,0,.22.51.51,0,0,0,.07.24.92.92,0,0,1,.1.32,1.19,1.19,0,0,1,0,.33,1.59,1.59,0,0,1,0,.38,2.17,2.17,0,0,0-.07.24.58.58,0,0,1-.09.25l-.17.18-.21.14a1.48,1.48,0,0,1-.35.19,1.83,1.83,0,0,0-.24.13c0,.05-.11.07-.14.12a.31.31,0,0,0,0,.1.78.78,0,0,1-.16.2.29.29,0,0,0-.11.21.56.56,0,0,1-.06.21c0,.08-.06.22-.15.24s-.19,0-.22-.09,0-.13,0-.2a.12.12,0,0,0-.16,0c-.05,0,0,.14,0,.2a1.25,1.25,0,0,0,0,.19l0,.19a.48.48,0,0,0,0,.12.88.88,0,0,1,0,.28.14.14,0,0,1,0,.07.45.45,0,0,0,0,.12.8.8,0,0,0,.05.21.51.51,0,0,1,0,.52.17.17,0,0,0-.05.15.49.49,0,0,0,0,.11.5.5,0,0,1,0,.17.25.25,0,0,1,0,.15c0,.08-.11.15-.16.22a.8.8,0,0,0-.13.24.76.76,0,0,1-.06.16s0,0,0,.07a.86.86,0,0,1-.06.39c-.07.15-.22.22-.35.32a.32.32,0,0,0-.13.22.43.43,0,0,0,0,.11.48.48,0,0,1,0,.12.87.87,0,0,1-.07.17.14.14,0,0,1-.11.1,1.6,1.6,0,0,0-.23.16l-.18.1-.15,0-.1,0-.11,0-.26,0-.47.1s-.11,0-.16.07a1,1,0,0,1-.17.1L972,574a.52.52,0,0,1-.13.06s-.08,0-.12,0l-.08,0a.94.94,0,0,0-.43.3,3.07,3.07,0,0,1-.25.26c-.08.08-.17.15-.25.24a.61.61,0,0,0-.21.36c0,.1.07.18.11.26a1.43,1.43,0,0,1,.08.22.62.62,0,0,1,0,.48,2.24,2.24,0,0,0-.22.4,2.8,2.8,0,0,0-.06.28.47.47,0,0,1-.06.21,3.51,3.51,0,0,1-.33.34l-.12.2c-.06.1-.09.22-.16.32a1.62,1.62,0,0,1-.19.18,1.25,1.25,0,0,0-.09.12.66.66,0,0,0-.05.15.42.42,0,0,1-.11.16,1.15,1.15,0,0,1-.66.15.67.67,0,0,1-.44-.07.4.4,0,0,0-.22-.14.71.71,0,0,0-.29,0c-.08,0,0,.1,0,.15s.05.09.07.13a1.42,1.42,0,0,0,.3.3,3.32,3.32,0,0,1,.46.38.34.34,0,0,1,.13.28.37.37,0,0,1-.38.4c-.2,0-.4,0-.61,0h-.35a.46.46,0,0,0-.2,0c-.07,0-.07.11-.06.18a.36.36,0,0,0,.12.16.44.44,0,0,1,.13.36c0,.12,0,.12-.15.12a1,1,0,0,1-.25,0c-.06,0-.09-.05-.15-.07a.36.36,0,0,0-.27,0c-.07.07.07.18.11.22a.58.58,0,0,0,.25.12c.11,0,.21,0,.32,0a.19.19,0,0,1,.12.23.22.22,0,0,1-.06.07.38.38,0,0,0-.09.09c-.05.08-.06.1,0,.18a1.28,1.28,0,0,0,.11.2c0,.06.11.17.07.24s-.09.07-.13.1,0,.08,0,.15a.28.28,0,0,0,.22.14,1.13,1.13,0,0,1,.31.06l.27.17a.44.44,0,0,1,.11.41.19.19,0,0,0,.1.22.25.25,0,0,1,.1.17,1,1,0,0,0,.12.23.38.38,0,0,0,.12.16l.17.14a.45.45,0,0,0,.17.11l.14,0,.15.05s.08.08.12.12l.18.11a1.14,1.14,0,0,0,.32.07l.18,0h.18c.08,0,.12,0,.14.1s0,.17,0,.21-.07,0-.1,0a.41.41,0,0,0-.16,0h-.24a.58.58,0,0,1-.23,0,.5.5,0,0,0-.21,0,.71.71,0,0,1-.28-.06s-.06-.05-.09-.07a.3.3,0,0,0-.11,0l-.14-.07-.21-.07a.94.94,0,0,0-.28-.1,1.54,1.54,0,0,1-.43,0c-.07,0-.12-.11-.18-.15a2.87,2.87,0,0,0-.49-.37c-.12-.08-.25-.13-.38-.21a1.59,1.59,0,0,1-.21-.15,1.88,1.88,0,0,1-.23-.16l-.26-.22-.33-.24a.79.79,0,0,1-.27-.33.39.39,0,0,1,0-.21.68.68,0,0,1,0-.14v-.18a.39.39,0,0,0-.12-.19,1,1,0,0,0-.2-.16l-.18-.09-.1-.08-.22-.11-.11-.09a.34.34,0,0,0-.12,0,.22.22,0,0,1-.14-.06s0-.06,0-.09a.7.7,0,0,0-.08-.1,2.11,2.11,0,0,0-.25-.27l-.36-.37-.24-.25a1.53,1.53,0,0,0-.18-.18,1.92,1.92,0,0,1-.18-.22.58.58,0,0,1-.05-.14s0-.08,0-.12a2.38,2.38,0,0,1,0-.26,5.94,5.94,0,0,1,0-.73c0-.08,0-.17,0-.25s.05-.14,0-.21a.34.34,0,0,0-.09-.14l-.2-.28-.13-.17c-.06-.08-.14-.15-.2-.24l-.06-.12a1.49,1.49,0,0,0-.12-.14,5.27,5.27,0,0,1-.31-.46,2.08,2.08,0,0,1-.16-.48c0-.16-.11-.32-.15-.49a1.21,1.21,0,0,0,0-.18,1,1,0,0,0-.09-.22.22.22,0,0,1,0-.11s0,0,0-.06-.07-.2-.09-.3a1.5,1.5,0,0,0,0-.22.66.66,0,0,0,0-.15,2.31,2.31,0,0,0-.18-.35l-.05-.11,0-.08a.37.37,0,0,1,0-.15,1,1,0,0,0,0-.3.83.83,0,0,0-.09-.16,1,1,0,0,1-.15-.32.13.13,0,0,1,0-.06l0-.08a1,1,0,0,1-.06-.16c0-.06,0-.13,0-.19a1.36,1.36,0,0,1,0-.17.49.49,0,0,0-.1-.15c-.05-.06-.12-.1-.17-.17a1.48,1.48,0,0,1-.13-.21.58.58,0,0,1,0-.14c0-.08,0-.16,0-.23s-.14-.07-.2-.12a1,1,0,0,0-.15-.14l-.06,0-.07-.07-.13,0-.1-.06s-.11,0-.16-.06l-.15-.06a1,1,0,0,0-.18-.08.66.66,0,0,1-.19-.09l-.14-.09a2.17,2.17,0,0,1-.33-.19l-.34-.17-.15-.09a1.39,1.39,0,0,0-.19-.06,2.36,2.36,0,0,1-.28-.12,1.74,1.74,0,0,1-.29-.25c-.11-.11-.28-.17-.35-.32l0-.08,0,0a.42.42,0,0,1-.06-.14l-.49-.56a.8.8,0,0,1-.2-.21c-.11-.13-.21-.28-.33-.41a.33.33,0,0,0-.17-.14.36.36,0,0,1-.24-.16,2,2,0,0,0-.3-.4,1.29,1.29,0,0,0-.16-.17.69.69,0,0,0-.13-.05c-.05,0-.06-.07-.07-.13s0-.12-.07-.19a2.64,2.64,0,0,0-.15-.29l-.1-.15-.13-.07a.57.57,0,0,1-.15-.12.22.22,0,0,1,0-.11c-.09-.21-.31-.31-.47-.46a3.61,3.61,0,0,1-.25-.3,1.22,1.22,0,0,1-.15-.17l-.06-.13a.88.88,0,0,1-.05-.15.83.83,0,0,1,0-.15.35.35,0,0,1,0-.14c0-.08,0-.11.1-.17s.14-.14.15-.23a1.13,1.13,0,0,0,0-.26.31.31,0,0,0-.06-.16.19.19,0,0,0-.09,0c-.08,0-.13-.12-.18-.18l-.13-.17s0-.11-.07-.16A.59.59,0,0,1,952,563a1.67,1.67,0,0,1,0-.59.69.69,0,0,0,.07-.15.27.27,0,0,1,.06-.1s0-.07,0-.1a.76.76,0,0,1,.06-.16,1.18,1.18,0,0,1,.24-.26.43.43,0,0,0,.14-.16.58.58,0,0,0,0-.19,1,1,0,0,1,0-.17c0-.08.07-.12.12-.19s.09-.14.15-.21a.43.43,0,0,0,.11-.21.57.57,0,0,0,.07-.22.41.41,0,0,0,0-.11s0,0-.05-.08a.55.55,0,0,1-.06-.18.72.72,0,0,0-.08-.22.94.94,0,0,1,0-.09l0-.07c0-.11-.12-.2-.17-.31a.62.62,0,0,1,0-.24c0-.11.11-.21,0-.31a.28.28,0,0,1-.06-.09.2.2,0,0,0,0-.09l-.07-.09-.07-.08-.17-.12s-.09-.08-.13-.12l-.09-.17a.15.15,0,0,1,0-.13.14.14,0,0,0,0-.07.24.24,0,0,0,0-.08s0,0-.07-.05l-.08-.06a.44.44,0,0,1-.12-.15.41.41,0,0,0-.11-.12s0,0-.09,0h-.08s0,0-.07,0,0,0-.06.07a1,1,0,0,1-.06.16.22.22,0,0,1-.09.1l-.12.08s-.06,0-.07.07,0,.07,0,.1a.52.52,0,0,0,.1.11.52.52,0,0,1,.13.06.15.15,0,0,1,0,.13c0,.08-.11,0-.17.07l-.11,0-.06,0c-.05,0-.1-.07-.14-.09a1.39,1.39,0,0,1-.19-.15,1.59,1.59,0,0,1-.15-.21s-.06,0-.12,0l-.15,0c-.1,0-.24-.09-.33,0s0,.06-.09,0l-.13,0a.32.32,0,0,1-.14-.12l-.06-.05,0-.06a2.11,2.11,0,0,0-.16-.34l-.11-.11-.06-.06-.15-.12-.11,0h-.23a.31.31,0,0,1-.13-.06c-.09-.07-.09-.19-.15-.28l-.05-.1a.26.26,0,0,1,0-.09.25.25,0,0,1,0-.14.86.86,0,0,0,0-.16.17.17,0,0,1,0-.07.11.11,0,0,1,0,0,.13.13,0,0,0-.09-.06l-.07,0h0a.2.2,0,0,1-.09-.07l0-.05a.47.47,0,0,1-.06-.09.39.39,0,0,0-.08-.14.94.94,0,0,1-.09-.12l-.06-.08-.09-.09a1,1,0,0,1-.15-.13s0,0,0-.07a.31.31,0,0,0-.06-.23l-.1-.06h-.1l-.22,0-.2,0a1.94,1.94,0,0,1-.24,0,.48.48,0,0,1-.19-.09l-.11-.08a1,1,0,0,0-.21-.15s0,0-.06,0a.6.6,0,0,0-.19,0,.57.57,0,0,1-.14,0h-.06l-.11,0-.1,0s-.05,0-.07,0a.18.18,0,0,1-.06-.09l-.05-.11s0-.06,0-.09a.1.1,0,0,0,0,0l-.07-.07s0,0-.06,0h-.05l-.08-.06s0,0-.05-.06a.75.75,0,0,1,0-.15.17.17,0,0,0,0-.07l0,0-.11-.08a.71.71,0,0,1-.14-.1s0,0-.08,0H944a.37.37,0,0,0-.18.08.61.61,0,0,1-.18.05c-.14,0-.25.15-.4.08A1,1,0,0,0,943,553a3,3,0,0,1-.45-.14,5,5,0,0,1-.95-.62,3.76,3.76,0,0,1-.62-.64,2,2,0,0,0-.49-.52.61.61,0,0,1-.14-.07l-.1-.07-.11,0s0-.17,0-.23v-.44c0-.13,0-.27,0-.41a.86.86,0,0,0,0-.16c0-.07-.06-.13-.08-.2a3.2,3.2,0,0,1-.07-.33c0-.14,0-.28,0-.42a1,1,0,0,1,0-.34c0-.13.14-.28.11-.42a1.14,1.14,0,0,0-.36-.51,1.12,1.12,0,0,1-.18-.2,1.28,1.28,0,0,1-.11-.27,2,2,0,0,1-.1-.26c0-.09-.09-.16-.14-.25a1.4,1.4,0,0,1-.15-.3,1.67,1.67,0,0,1-.08-.2.45.45,0,0,1,0-.16,2,2,0,0,0,.08-.26.77.77,0,0,0,0-.26,4.21,4.21,0,0,0-.09-.49c0-.17-.11-.35-.17-.52s-.09-.19-.12-.29,0-.24-.07-.36-.08-.17-.11-.26a.51.51,0,0,0-.09-.16.1.1,0,0,0-.15,0l0,.08a.35.35,0,0,0-.06.17.49.49,0,0,0,0,.17,2.7,2.7,0,0,0,0,.28c0,.15.08.29.12.43s.12.21.12.33,0,.49,0,.73a1.27,1.27,0,0,0,.08.44c0,.08.1.15.13.23l.09.22a2.27,2.27,0,0,1,.07.82,2.15,2.15,0,0,0,.07.56c0,.12.1.23.15.35a1.51,1.51,0,0,1,0,.37,2.56,2.56,0,0,1,0,.39c0,.11-.06.27-.18.15a.67.67,0,0,1-.16-.27.55.55,0,0,1,0-.26v-.22a.74.74,0,0,0-.05-.25c0-.13-.12-.28-.18-.41s-.12-.26-.18-.39a1.42,1.42,0,0,1-.08-.18.74.74,0,0,0-.07-.21.66.66,0,0,1,0-.15,1.26,1.26,0,0,1,0-.28v-.62a.67.67,0,0,0,0-.2c0-.06-.06-.08-.11-.11s-.09,0-.1-.1a.55.55,0,0,1,.07-.25.61.61,0,0,0,0-.3.3.3,0,0,0-.08-.22,1.61,1.61,0,0,1-.17-.28.39.39,0,0,1-.06-.24.66.66,0,0,1,0-.24.69.69,0,0,1,0-.13,1,1,0,0,0,0-.17,2,2,0,0,1,.07-.26,1,1,0,0,0-.1-.69,2.36,2.36,0,0,1-.1-.38,1.52,1.52,0,0,0-.06-.2c0-.1,0-.2-.06-.3a.63.63,0,0,0,0-.19,1.65,1.65,0,0,1-.14-.57.62.62,0,0,1,.07-.19c.05-.08.14-.13.14-.23s0-.2,0-.3a2.85,2.85,0,0,0,0-.29,2.23,2.23,0,0,0,0-.27,1.06,1.06,0,0,1,0-.25.73.73,0,0,1,0-.25.59.59,0,0,0,0-.19.74.74,0,0,1,.09-.33,1.28,1.28,0,0,0,.11-.27,2.33,2.33,0,0,0,.07-.25,2.31,2.31,0,0,0,.1-.28.75.75,0,0,0,0-.2c0-.05,0-.11,0-.16a2,2,0,0,0-.07-.23h0a36,36,0,0,1,1.12-3.42,38.69,38.69,0,1,0,73.75,23A1.87,1.87,0,0,0,1012.39,557.17Zm-56.93-41.9a1.79,1.79,0,0,1-.27.28,2.88,2.88,0,0,1-.27.22.85.85,0,0,0-.19.19c-.06.08-.12.14-.18.23a.88.88,0,0,0-.07.23,1.62,1.62,0,0,0,0,.2.48.48,0,0,1-.08.31l-.18.27a447069455194.51,447069455194.51,0,0,0-.26.28.32.32,0,0,1-.23,0h-.23a1.87,1.87,0,0,0-.32.08,1.23,1.23,0,0,0-.33.08c-.17.1-.31.22-.48.31a1.09,1.09,0,0,1-.23.09c-.07,0-.26.06-.31,0l-.6-.16c-.16,0-.25-.27-.18-.39s.14-.11.21-.15.18-.1.26-.16a1.25,1.25,0,0,0,.23-.23c0-.07.14-.11.18-.19a.32.32,0,0,1,0-.09,1.13,1.13,0,0,1,.1-.13.93.93,0,0,1,.18-.16l.14-.11a.3.3,0,0,1,.21,0,.39.39,0,0,0,.28,0l.36-.18a1.31,1.31,0,0,0,.24-.17,2.09,2.09,0,0,0,.14-.17c.07-.06.14-.1.2-.16a.76.76,0,0,1,.26-.18,1.68,1.68,0,0,1,.3-.15,1.19,1.19,0,0,0,.26-.11c.16-.1.29-.27.47-.33s.32-.12.39,0a.45.45,0,0,1,0,.23A.36.36,0,0,1,955.46,515.27Zm-1.92,35.22h-.19a.7.7,0,0,0-.1.08l-.08,0,0,0-.13.09a.08.08,0,0,1-.1,0c-.06,0-.1-.08-.15-.11s0,0,0,0l0,0s0,0,0,0l-.23,0h-.18a.45.45,0,0,0-.12.06.72.72,0,0,1-.22.1s-.12,0-.14,0a.1.1,0,0,1,0-.09c0-.06,0-.12,0-.17s0-.09,0-.12.14-.07.19-.13a.12.12,0,0,0,0-.13.25.25,0,0,0-.09,0l-.1,0h-.14l-.14,0-.05,0a.43.43,0,0,1,0-.07l-.06-.09a.31.31,0,0,1-.05-.1.52.52,0,0,1-.06-.13.23.23,0,0,0-.14-.15.22.22,0,0,0-.16,0l-.11,0-.1,0-.07,0a.45.45,0,0,1-.23,0,1.13,1.13,0,0,1-.32-.13,1,1,0,0,0-.16-.12.44.44,0,0,0-.2,0c-.08,0-.14,0-.18-.08s-.06-.17-.15-.21l-.08,0a.83.83,0,0,0-.27.07.31.31,0,0,0-.15.1,1,1,0,0,1-.11.15l-.08.07-.1.06-.05,0s0,0-.07,0-.4,0-.4-.11.11-.07.12-.13a.49.49,0,0,0,0-.17v-.05l0,0,0-.06.05,0c.08-.07.19-.08.28-.14l.1-.06a.86.86,0,0,1,.16-.1.7.7,0,0,1,.25-.05h.07l.07,0,.12,0a1.62,1.62,0,0,0,.31,0h.45l.11,0,.11,0s0,0,.06,0l.11.07.17.09a2,2,0,0,0,.22.09h0l0,0,.06,0,.06,0,.14.1.11.08s0,0,.05.05l0,0,.12.11c.07,0,.15.06.22.11l.14,0,.09,0a.31.31,0,0,0,.12.05l.42.11a.29.29,0,0,1,.13,0l.11.08a2.22,2.22,0,0,0,.42.25.86.86,0,0,0,.17,0,.56.56,0,0,1,.21.09.35.35,0,0,1,.12.2C953.77,550.51,953.6,550.49,953.54,550.49Zm5.5-36.88a1.09,1.09,0,0,1,.26-.22l.21-.1.17,0,.26-.14.22-.15a1,1,0,0,1,.61-.1.47.47,0,0,0,.17,0,.45.45,0,0,1,.2,0,.14.14,0,0,1,.1.05l.09.13c0,.06.08.11.1.16s0,.13.07.18.19.13.27.22l.13.13s.1.06.13.1,0,.15,0,.22,0,.18-.1.22a.25.25,0,0,1-.15,0h-.28a1,1,0,0,0-.18,0h-.45a2,2,0,0,1-.34-.05,2.38,2.38,0,0,1-.26,0,1.45,1.45,0,0,0-.29,0,.55.55,0,0,0-.18,0l-.15.05a1.11,1.11,0,0,1-.26,0,.37.37,0,0,1-.25,0s-.06-.08-.09-.13-.08-.08-.07-.14Zm6.16,6a.83.83,0,0,1-.29.16.57.57,0,0,1-.22,0,.83.83,0,0,0-.29.16.68.68,0,0,1-.27.13.24.24,0,0,1-.16,0l-.33-.23c-.11-.07-.19-.16-.29-.23a.21.21,0,0,0-.13-.05.67.67,0,0,0-.2,0c-.14,0-.15.24-.17.35a1.26,1.26,0,0,0-.05.28.47.47,0,0,0,.19.34,1.28,1.28,0,0,1,.23.29,1.15,1.15,0,0,1,.08.41.77.77,0,0,1-.36.55c-.14.1-.3,0-.44-.06a1.77,1.77,0,0,0-.31-.08c-.19,0-.58,0-.65.2v.11l0,.24c0,.06-.2,0-.24,0a1.77,1.77,0,0,0-.4-.08,2.55,2.55,0,0,0-.48,0c-.19,0-.44,0-.55-.17s0-.41-.1-.56a.57.57,0,0,0-.27-.16,1.83,1.83,0,0,0-.62-.1l-.67-.29c-.11,0-.14,0-.19-.1a.64.64,0,0,1-.06-.18l0-.13c0-.11.2-.2.29-.24a.81.81,0,0,1,.38-.07,5.13,5.13,0,0,0,.66-.13,3.23,3.23,0,0,1,.44,0c.07,0,.14,0,.18-.05s0-.16.06-.24.07-.1.1-.16a.37.37,0,0,0,0-.15c0-.08,0-.15.06-.21s.17-.1.23-.15.22-.13.32-.21a.74.74,0,0,0,.26-.49,2,2,0,0,0,0-.43.33.33,0,0,0,0-.1.64.64,0,0,0-.08-.19c0-.1,0-.18-.14-.23a1.11,1.11,0,0,0-.37-.07,1.57,1.57,0,0,0-.37,0,3,3,0,0,1-.42,0,1.08,1.08,0,0,1-.3-.11.84.84,0,0,1-.21-.11.31.31,0,0,0-.18-.09,1.31,1.31,0,0,0-.28,0h-.39l-.25,0a.34.34,0,0,1-.22-.05c-.09-.07-.06-.19,0-.28a.63.63,0,0,1,.12-.32l.09-.08a.74.74,0,0,1,.19-.16c.16-.09.31-.2.48-.29a1,1,0,0,0,.17-.12.51.51,0,0,0,.13-.29.46.46,0,0,1,.14-.22l.18-.17c.11-.09.24-.14.36-.22a1.54,1.54,0,0,1,.34-.17.51.51,0,0,1,.17,0c.14.06.07.46.07.59s0,.07.06.09h.66a1.68,1.68,0,0,1,.45.06.44.44,0,0,1,.27.09c.12.15-.33.4-.06.48l.69.19.48.14a1.4,1.4,0,0,1,.29.09,2,2,0,0,1,.41.31.83.83,0,0,1,.39.47c0,.18-.1.29-.22.4s-.23.15-.23.26.29.22.37.26a2.2,2.2,0,0,1,.26.15,1.88,1.88,0,0,1,.24.14.64.64,0,0,1,.13.15s0,.09,0,.14.29.34.39.53.1.29.27.37S965.3,519.51,965.2,519.63Zm1.12-8.15a1.14,1.14,0,0,0-.26.32,1.6,1.6,0,0,1-.37.41,1.76,1.76,0,0,1-.49.16,2.2,2.2,0,0,1-.56.1c-.11,0-.18-.11-.3-.07a2.52,2.52,0,0,0-.34.15c-.25.14-.49.31-.75.45l-.21.09a.64.64,0,0,0-.18.1.76.76,0,0,1-.37.16.45.45,0,0,1-.2,0c-.08,0-.06-.07-.1-.06l-.06,0c-.06-.07,0-.06-.08-.15s0-.17-.12-.2-.22,0-.31-.06a.49.49,0,0,1-.16-.16c-.05-.14.1-.26.21-.3a1.4,1.4,0,0,0,.44-.29l.16-.18a.5.5,0,0,1,.35-.23,2.21,2.21,0,0,0,.57-.11,3.12,3.12,0,0,0,.42-.18l.35-.25a2.11,2.11,0,0,0,.43-.36.94.94,0,0,1,.69-.17c.14,0,.26,0,.39,0a4.36,4.36,0,0,1,.52.05,1.34,1.34,0,0,0,.56-.08l.71-.25a3.66,3.66,0,0,1,1.17-.29c.17,0,.34,0,.51,0a2,2,0,0,0,.49-.05,3,3,0,0,0,.42-.14c.13-.06.21-.1.33,0a.35.35,0,0,1,.16.3c0,.13-.05.24-.18.27a3.13,3.13,0,0,1-.53,0,1.37,1.37,0,0,0-.35,0c-.22.06-.37.26-.58.33a1.71,1.71,0,0,1-.54.13,4.21,4.21,0,0,0-.94,0,2,2,0,0,0-.56.26.9.9,0,0,0-.19.15A.65.65,0,0,1,966.32,511.48Zm15,5.57a.54.54,0,0,1-.19.3l-.41.32a2.86,2.86,0,0,1-.87.4,1.25,1.25,0,0,1-.43,0h-.94a1.61,1.61,0,0,0-.49.06c-.1,0-.1.09-.14.19l-.25.57a2,2,0,0,1-.19.39.73.73,0,0,1-.35.32,3.85,3.85,0,0,1-.83.11,4.55,4.55,0,0,1-.53,0,1.52,1.52,0,0,0-.21,0l-.3.06a1.11,1.11,0,0,0-.53.2,1.07,1.07,0,0,0-.3.74.83.83,0,0,1-.18.48,2.1,2.1,0,0,1-.33.26c-.1.08-.26.17-.3.3a1.15,1.15,0,0,0,0,.19c0,.1,0,.2,0,.3a1.93,1.93,0,0,0,0,.34,1,1,0,0,1-.13.66,1.85,1.85,0,0,1-.6.36.28.28,0,0,1-.28,0l-.13-.08a3.45,3.45,0,0,0-1-.32c-.18,0-.35,0-.52,0a.18.18,0,0,1-.17-.12,1.32,1.32,0,0,1-.08-.33.73.73,0,0,0-.74-.53c-.1,0-.26,0-.3-.08a.66.66,0,0,1,0-.15c0-.1,0-.21,0-.31a3.6,3.6,0,0,1-.08-.56.59.59,0,0,0,0-.19,3,3,0,0,0-.2-.29c-.11-.21,0-.39.06-.6a.85.85,0,0,0,.06-.31.28.28,0,0,0,0-.15l-.13-.18a2.22,2.22,0,0,1-.25-.35.65.65,0,0,1,0-.28.71.71,0,0,1,.09-.28c0-.07.08-.12.12-.18a.66.66,0,0,1,.12-.17l.24-.25a2.36,2.36,0,0,0,.2-.31,1,1,0,0,1,.1-.17.74.74,0,0,0,.14-.22.76.76,0,0,0,0-.26,2.48,2.48,0,0,0-.1-.39c0-.1-.08-.25-.21-.28l-.1,0-.09,0-.11-.06s0-.08,0-.13a.39.39,0,0,0,.08-.27.52.52,0,0,0-.11-.25.66.66,0,0,0-.15-.14l-.12-.12a.71.71,0,0,1-.16-.26,1.09,1.09,0,0,1,0-.31.54.54,0,0,1,.05-.22c0-.09.1-.17.13-.26A.65.65,0,0,0,969,514c0-.21-.3-.36-.48-.39l-.15,0h-.1l-.12-.09-.1,0a1.68,1.68,0,0,0-.3-.15.45.45,0,0,0-.23,0c-.15,0-.31.07-.46.11a1.16,1.16,0,0,1-.37,0l-.13-.42c0-.05,0-.1,0-.15s0-.07,0-.11a.2.2,0,0,1,.06-.12c0-.06.12-.05.18-.09s.07-.29.21-.41a.51.51,0,0,1,.28-.08l.33,0a1.44,1.44,0,0,0,.58-.17.83.83,0,0,0,.24-.22,1.49,1.49,0,0,1,.82-.43,8.35,8.35,0,0,1,1-.17,4.81,4.81,0,0,0,.84-.17c.38-.12.77-.25,1.15-.39a2.66,2.66,0,0,1,1-.15,3.84,3.84,0,0,0,.48,0l.3,0a5.84,5.84,0,0,1,.59-.2,5.93,5.93,0,0,1,1,.05,6,6,0,0,0,.61,0c.2,0,.39-.1.59-.14a.72.72,0,0,1,.55.13c.11.08.18.2.29.28a.47.47,0,0,0,.32.1c.3,0,.59,0,.88,0a.68.68,0,0,1,.37.09c.09.08.06.19.06.3a1.86,1.86,0,0,0,0,.33,1.22,1.22,0,0,0,.07.17,3.33,3.33,0,0,1,.16.88,2.07,2.07,0,0,0,.1.43,1.19,1.19,0,0,0,.32.35c.09.08.27.19.27.33s-.06.16-.07.23c0,.28.24.43.43.58s.31.21.32.37a.92.92,0,0,1,0,.28,2.61,2.61,0,0,1-.52,1c-.07.1-.2.2-.18.33a.57.57,0,0,0,.14.28c.19.22.49.17.73.27.05,0,.12,0,.14.1S981.32,517,981.31,517.05Z" transform="translate(-933.35 -508.78)"/><path class="cls-3" d="M1001.12,519" transform="translate(-933.35 -508.78)"/><path class="cls-4" d="M1000.11,575.24c-9.09,10.63-24.08,12.37-35,9.64a38.67,38.67,0,0,1-28.83-35.28c-.78-17.22,10.58-35.62,27.69-38.47,20.24-3.36,34.25,17.4,35.28,19C1006.59,541.35,1011.86,561.52,1000.11,575.24Z" transform="translate(-933.35 -508.78)"/><path class="cls-5" d="M954.24,580.51a38.67,38.67,0,0,0,55.66-17.15c-19.49,11.29-41.07,9.94-51.75-1.29-7.86-8.26-8.81-20.82-8.91-22.46a36.38,36.38,0,0,1,4.93-21.4,33.18,33.18,0,0,1,4.65-5.94,38.68,38.68,0,0,0-4.58,68.24Z" transform="translate(-933.35 -508.78)"/><ellipse class="cls-6" cx="965.04" cy="529.27" rx="3.88" ry="1.66" transform="translate(-505.65 981.05) rotate(-89.52)"/><path class="cls-6" d="M969.87,535.59c.53,3.67,4,5.86,6.77,5.17a5.59,5.59,0,0,0,3.92-5.35Z" transform="translate(-933.35 -508.78)"/><path class="cls-7" d="M973.63,538a4.3,4.3,0,0,1,2-.29c1.36.12,3.17.86,3.16,1.64s-1.82,1.3-2,1.35a4.12,4.12,0,0,1-1.78.14c-1.29-.17-2.93-1-2.89-1.69C972.15,538.6,973.1,538.22,973.63,538Z" transform="translate(-933.35 -508.78)"/><ellipse class="cls-6" cx="985.92" cy="529.45" rx="3.88" ry="1.66" transform="translate(-485.12 1002.11) rotate(-89.52)"/><path class="cls-6" d="M996.73,559.22" transform="translate(-933.35 -508.78)"/><path class="cls-8" d="M974.78,566.64a31.94,31.94,0,0,1,6.89-8c12.35-10.31,28.75-7.89,32.24-7.3l2.43,10.63A65.75,65.75,0,0,0,975,570.33Z" transform="translate(-933.35 -508.78)"/><path class="cls-8" d="M974.9,566.64a32.09,32.09,0,0,0-6.88-8c-12.35-10.31-28.75-7.89-32.24-7.3l-2.43,10.63a65.71,65.71,0,0,1,41.31,8.41Z" transform="translate(-933.35 -508.78)"/><polygon class="cls-8" points="41.65 63.48 42.02 94.22 49.42 74.94 44.21 62.01 41.65 63.48"/><polygon class="cls-8" points="40.95 63.48 40.59 94.22 33.18 74.94 38.4 62.01 40.95 63.48"/><path class="cls-9" d="M976.43,568.78c.73.8,5.06-4.58,14.43-7.77,8.12-2.76,17.86-3.13,21.13-2,.26.09,1.37.51,1.55.23s-1.13-1.8-2.22-2.54c-4.24-2.91-10.65.2-10.94-.64-.16-.46,1.75-1.71,3.81-2.53a25.17,25.17,0,0,1,6.82-1.43,19.89,19.89,0,0,0-5.87-.32c-3.36.15-11.81.52-19.51,5.87C979.59,561.87,975.68,568,976.43,568.78Z" transform="translate(-933.35 -508.78)"/><path class="cls-9" d="M972.65,568.94c-.74.8-5.06-4.59-14.43-7.77-8.12-2.76-17.87-3.13-21.13-2-.26.1-1.38.52-1.56.23s1.14-1.79,2.22-2.54c4.25-2.91,10.66.2,11-.63.16-.47-1.75-1.71-3.81-2.54a25.64,25.64,0,0,0-6.82-1.43,20.12,20.12,0,0,1,5.87-.31c3.36.15,11.81.52,19.51,5.87C969.48,562,973.39,568.13,972.65,568.94Z" transform="translate(-933.35 -508.78)"/><path class="cls-9" d="M975,569.06c-.58.17,1.21,5.05,1.56,12.89.34,7.51-.85,12.87-.16,13,.4.08,1.06-1.66,2.22-4.75s1.66-4.41,1.75-6c.07-1.34-.12-2.55-1.43-6.19C977.94,575.33,975.62,568.86,975,569.06Z" transform="translate(-933.35 -508.78)"/><path class="cls-9" d="M974.11,569.06c.58.17-1.21,5.05-1.56,12.89-.35,7.51.85,12.87.16,13-.4.08-1.06-1.66-2.22-4.75s-1.66-4.41-1.75-6c-.07-1.34.12-2.55,1.43-6.19C971.12,575.33,973.44,568.86,974.11,569.06Z" transform="translate(-933.35 -508.78)"/><path class="cls-10" d="M971.48,566.44v5.47a6.35,6.35,0,0,0,5.3.47,5.49,5.49,0,0,0,1-.47v-5.47a5.23,5.23,0,0,0-6.34,0Z" transform="translate(-933.35 -508.78)"/><image width="450" height="396" transform="translate(38.04 57.66) scale(0.01)" xlink:href="../../Club%20de%20aventureros%20logo%20espa%C3%B1ol%20png.png"/></g></g></svg>