<svg xmlns="http://www.w3.org/2000/svg" xmlns:xlink="http://www.w3.org/1999/xlink" viewBox="0 0 186.52 173.24"><defs><style>.cls-1{isolation:isolate;}.cls-2{fill:#66ebbc;}.cls-3{fill:#02cbc4;}.cls-4{fill:#00ce9a;mix-blend-mode:multiply;}.cls-4,.cls-5{opacity:0.4;}.cls-5{fill:#00757c;}.cls-6{fill:#1a1719;}.cls-7{fill:#fd878b;}.cls-8{fill:#fff;}.cls-9{fill:#7a302f;}</style></defs><g class="cls-1"><g id="Capa_1" data-name="Capa 1"><circle class="cls-2" cx="1563.24" cy="601.57" r="86.47" transform="translate(-1443.42 766.48) rotate(-45)"/><path class="cls-3" d="M1640,568.74c.08-.12.23-.3.18-.46s-.47-.24-.62-.08a.4.4,0,0,0-.14.28,1.22,1.22,0,0,1,0,.27c-.06.23-.42.28-.38.55l.12.64a.81.81,0,0,0,.12.14.36.36,0,0,1,.1.15.43.43,0,0,0,.22.18,3.36,3.36,0,0,0,.33.16.3.3,0,0,0,.21,0,.21.21,0,0,0,.09-.15.87.87,0,0,0-.06-.67.78.78,0,0,0-.11-.2,1.1,1.1,0,0,0-.14-.09.72.72,0,0,1-.21-.18c0-.08,0-.12,0-.19S1640,568.87,1640,568.74Z" transform="translate(-1475.91 -515.1)"/><path class="cls-3" d="M1636.58,572.84a1.25,1.25,0,0,0,.28.52,2.94,2.94,0,0,1,.27.53c.24.47.29,1,.49,1.48l.15.32s.07.11,0,.17l.12.49a.23.23,0,0,0,.06.18,1.4,1.4,0,0,1,.16.2.47.47,0,0,0,.39.2c.1,0,.11,0,.18-.09l.19-.23.12-.15a.77.77,0,0,1,.17-.19,1.57,1.57,0,0,1,.52-.29.43.43,0,0,0,.19,0,4.53,4.53,0,0,0,.4-.26c.07,0,.21-.23.32-.2s.17.25.21.3a3.93,3.93,0,0,0,.29.42.62.62,0,0,0,.14.18,1.16,1.16,0,0,0,.24.14,2.07,2.07,0,0,0,.25.15c.11.06.23.09.35.15a1.54,1.54,0,0,0,.52.14h.47c.11,0,.35.1.41,0a.45.45,0,0,0,0-.23c0-.11,0-.2,0-.31a1.21,1.21,0,0,0-.06-.57,1.08,1.08,0,0,1-.08-.19c-.06-.14-.05-.31-.1-.45a1.5,1.5,0,0,0-.37-.46,8,8,0,0,1-.65-.65c-.22-.25-.37-.55-.61-.79a.87.87,0,0,0-.22-.21l-.24-.15a.67.67,0,0,1-.27-.37c0-.11-.09-.21-.13-.32s0-.21-.09-.32-.24-.25-.35-.38l-.23-.28c0-.06-.07-.09-.14,0s-.08.13-.13.19a.7.7,0,0,0-.08.1.83.83,0,0,1-.13.18,1.69,1.69,0,0,0-.17.29c0,.07-.06.12-.14.12a.41.41,0,0,1-.23-.15,2.3,2.3,0,0,1-.25-.43c0-.13-.07-.26-.13-.38a.94.94,0,0,0-.35-.39c-.19-.11-.44-.15-.42-.42s.12-.36,0-.52a1.59,1.59,0,0,0-.39-.34.91.91,0,0,1-.23-.17,1,1,0,0,0-.22-.24.29.29,0,0,0-.24,0,.63.63,0,0,0-.35.35,1.44,1.44,0,0,0-.08.55,1,1,0,0,0,.26.65c.07.08.16.15.23.23a.79.79,0,0,1,.09.5,3.13,3.13,0,0,1-.35.94A1.09,1.09,0,0,0,1636.58,572.84Z" transform="translate(-1475.91 -515.1)"/><path class="cls-3" d="M1634.88,589.64a2.88,2.88,0,0,1,.83-.13,1.58,1.58,0,0,1,.91.17,3.06,3.06,0,0,1,.51.57c.15.19.29.39.44.57a7.34,7.34,0,0,0,.94.91.78.78,0,0,0,.46.21,3.55,3.55,0,0,0,.86,0,1.88,1.88,0,0,1,.71,0c.26.09.61.43.87.19s.27-.44.48-.57a1.9,1.9,0,0,1,.71-.17,2.19,2.19,0,0,1,.51,0l.28.06c.08,0,.23.11.3.06a4.44,4.44,0,0,0,.07-.9c0-.25,0-.5,0-.76a4.45,4.45,0,0,0-.16-1.36,3.34,3.34,0,0,1-.17-.71,2.36,2.36,0,0,1,0-.46c0-.26,0-.52,0-.79,0-.54,0-1.08,0-1.62,0-.39-.12-1.09-.68-.93a.67.67,0,0,0-.28.19,1.17,1.17,0,0,1-.35.28,1,1,0,0,1-.37.11.89.89,0,0,1-.23,0c-.07,0-.09-.11-.13-.17a2.86,2.86,0,0,0-.48-.5c-.15-.13-.26-.25-.43,0a1.84,1.84,0,0,1-.63.58c-.29.14-.47.1-.6-.18a2.94,2.94,0,0,0-.29-.59,5.32,5.32,0,0,0-.75-.75,2.54,2.54,0,0,1-.65-.84,1.3,1.3,0,0,1,0-.73,1.43,1.43,0,0,0-.24-.79,1.46,1.46,0,0,0-.36-.61.46.46,0,0,1-.17-.31c0-.07,0-.14,0-.21a1.19,1.19,0,0,0,0-.32,1.48,1.48,0,0,0-.1-.27c-.08-.13-.07-.17.07-.23a1.72,1.72,0,0,1,.58-.19c.19,0,.39,0,.58-.06s.19,0,.23-.14-.25-.47-.39-.58a2.12,2.12,0,0,0-.35-.23c-.14-.07-.23,0-.37,0a4.81,4.81,0,0,1-1,.13c-.2,0-.5-.06-.68.06a.92.92,0,0,0-.31.67,1.36,1.36,0,0,1,0,.27c-.07.13-.27.2-.39.26s-.36.06-.44.19.13.54.27.68c.32.31.68.59,1,.93a3.71,3.71,0,0,1,.53.82,1.71,1.71,0,0,1,.21.4c.07.26-.29.29-.38.47s.16.62.21.92a2.6,2.6,0,0,1-.1.72c0,.27.06.56-.31.58-.63,0-1.14-.58-1.35-1.11-.11-.29-.19-.6-.3-.9a2.34,2.34,0,0,0-.28-.6,1.76,1.76,0,0,0-.69-.48,1.48,1.48,0,0,1-.65-.48c-.1-.17,0-.35.07-.53a1.64,1.64,0,0,0-.1-.82,2.06,2.06,0,0,0-.51-.66.53.53,0,0,1-.2-.46,2.27,2.27,0,0,0,0-.78,4.57,4.57,0,0,0-2-2.74,3.19,3.19,0,0,0-.64-.32l-.24-.1a2.94,2.94,0,0,1-.74-.71,7.56,7.56,0,0,0-1.23-1.1,6.33,6.33,0,0,0-.7-.44,2.77,2.77,0,0,1-.68-.45.61.61,0,0,1-.15-.37c0-.26-.26-.39-.44-.55s-.34-.32-.57-.2a1.44,1.44,0,0,0-.47.45.72.72,0,0,0,0,.64,2.09,2.09,0,0,0,.26.57,1.55,1.55,0,0,0,.62.48l.58.3c.13.07.22.09.25.24.09.37,0,.78.31,1.06a4.15,4.15,0,0,0,.43.3c.18.08.35.17.51.26a2.67,2.67,0,0,1,.44.38l1.32,1.32a2.2,2.2,0,0,0,.92.57,2.27,2.27,0,0,1,1,.54c.08.08.13.17.21.24s.21.17.3.26a.51.51,0,0,1,0,.68l-.18.18c-.14.14-.24.06-.39,0a2.08,2.08,0,0,1-.4-.32c-.07-.06-.24-.23-.35-.21s-.21.24-.2.34.21.25.29.33c.25.22.54.38.68.69s-.08.52-.33.69a1.39,1.39,0,0,0-.41.31,1.26,1.26,0,0,0-.2.48,1.33,1.33,0,0,0,0,.28c0,.1.17.23.16.32-.24.08-.33.11-.38.39a2.54,2.54,0,0,0,0,.78.48.48,0,0,1,0,.39.69.69,0,0,1-.24.34c-.49.27-.8-.66-1.06-.9a2.37,2.37,0,0,0-.5-.3,1.44,1.44,0,0,1-.4-.23.9.9,0,0,1-.21-.31c-.08-.16-.15-.27,0-.38.42-.22,1,0,1.39-.24.24-.11.33-.41.41-.63s.15-.39.21-.58a.63.63,0,0,0-.15-.73c-.07-.08-.15-.16-.22-.25s-.19-.37-.33-.54-.51-.28-.74-.48-.51-.61-.86-.77-.76-.17-1.1-.35-.72-.85-1-1.27a1.21,1.21,0,0,0-.42-.42c-.23-.14-.48-.2-.72-.32a1.61,1.61,0,0,1-.5-.31,2.47,2.47,0,0,1-.23-.46,5.64,5.64,0,0,0-.31-.53c-.18-.31-.35-.64-.55-.94a1.12,1.12,0,0,0-.44-.45,1,1,0,0,0-.9.18c-.22.15-.36.37-.58.52a2.78,2.78,0,0,1-.47.28c-.19.1-.4.24-.6.32a3.33,3.33,0,0,1-1,.13,4.28,4.28,0,0,1-.72-.06,8.24,8.24,0,0,0-1-.07.52.52,0,0,0-.4.07c-.11.1-.09.35-.08.49a1.24,1.24,0,0,0,.15.42.67.67,0,0,1,.15.33c0,.07,0,.15,0,.22a3.77,3.77,0,0,1-.23.64c-.06.14-.17.25-.24.38a4.47,4.47,0,0,0-.19.46,2.27,2.27,0,0,1-.26.57c-.21.23-.57.18-.83.3a.79.79,0,0,0-.5.73.84.84,0,0,1-.15.49,3.83,3.83,0,0,0-.36.44.71.71,0,0,0-.12.38,6.48,6.48,0,0,0,.17.63,1.88,1.88,0,0,1,0,.41c-.06.37-.17.74-.25,1.11s-.07.59-.34.68a5.7,5.7,0,0,0-1.52.71c-.12.08-.21.18-.32.26a3.72,3.72,0,0,1-.76.41,1,1,0,0,1-.88.16l-.27-.12c-.1,0-.23,0-.31-.11s-.79.18-.78.74a2.52,2.52,0,0,0,0,.55,1.28,1.28,0,0,0,.07.28.92.92,0,0,0,.35.3.7.7,0,0,0,.66.08,1.26,1.26,0,0,1,.42-.12h.58a.54.54,0,0,1,.39.09.79.79,0,0,0,.31.17,4.21,4.21,0,0,0,.71,0,3.42,3.42,0,0,0,.64,0l.29,0a1.5,1.5,0,0,0,.42-.29,3.24,3.24,0,0,0,.43-.4,2.49,2.49,0,0,1,.34-.38,4,4,0,0,1,.86-.68,5.36,5.36,0,0,1,1.27-.08,13,13,0,0,1,1.53,0,2.49,2.49,0,0,0,1.15-.38c.13-.07.28-.11.41-.19a2.53,2.53,0,0,1,.72-.29,1.61,1.61,0,0,1,1.08.11,1.48,1.48,0,0,0,.83.14,2.8,2.8,0,0,0,.41-.13l.66-.18a7.22,7.22,0,0,0,.82-.29,1.85,1.85,0,0,1,.78-.23.81.81,0,0,1,.43.14c.12.08.21.12.27.26a.87.87,0,0,1,.09.36.62.62,0,0,0,0,.38c.19.26.48.42.57.74a2.58,2.58,0,0,1,.08.26v.29a2.26,2.26,0,0,1,0,.52l-.09.28a1.73,1.73,0,0,1-.24.47,1.11,1.11,0,0,0-.13.4.69.69,0,0,0,0,.32,2.8,2.8,0,0,0,.56,1.42c.31.34.6.71,1.1.74a4.39,4.39,0,0,0,.81,0,1.46,1.46,0,0,1,.56.06c.14,0,.31,0,.44.08s.23.23.32.33a1.18,1.18,0,0,0,.33.3,3.91,3.91,0,0,1,.67.48,2.51,2.51,0,0,1,.31.26.83.83,0,0,0,.15.17c.26.18.68.1,1,.18a2.62,2.62,0,0,1,.91.43,3.71,3.71,0,0,1,.29.27,2,2,0,0,1,.12.19c0,.07.13.12.18.19a2.52,2.52,0,0,0,.3.35,1.37,1.37,0,0,0,.54.3h.15c.17,0,.18,0,.27-.16a1.39,1.39,0,0,0,.32-.67,7.11,7.11,0,0,0,0-1.13,1.13,1.13,0,0,1,.17-.84A1.25,1.25,0,0,1,1634.88,589.64Z" transform="translate(-1475.91 -515.1)"/><path class="cls-3" d="M1648.37,616.87h0c-.16.09-.27.28-.42.4a2,2,0,0,1-.29.22,1.19,1.19,0,0,1-.36.09c-.1,0-.38.11-.47,0a.59.59,0,0,1,0-.23.56.56,0,0,1,.09-.21.92.92,0,0,0,.08-.4c0-.27.15-.51.19-.78a3.08,3.08,0,0,0,.08-.53c0-.13,0-.25,0-.38v-.58a1.71,1.71,0,0,0,0-.32c0-.17-.09-.32-.12-.49a1.3,1.3,0,0,1,0-.44,7,7,0,0,1,.24-.78,1,1,0,0,0,.12-.51,1.33,1.33,0,0,0-.16-.34c-.06-.13-.08-.25-.14-.37a2.39,2.39,0,0,1-.22-.91,13.67,13.67,0,0,0-.09-1.69,3.39,3.39,0,0,1-.08-.44,1.85,1.85,0,0,1,.09-.66c0-.14.07-.29.13-.43a1.07,1.07,0,0,0,.1-.22.16.16,0,0,0,0-.12.44.44,0,0,1-.08-.11.28.28,0,0,0,0-.13c0-.07-.12-.13-.16-.2a.62.62,0,0,1-.07-.19,3.83,3.83,0,0,1,0-.83,6.18,6.18,0,0,0-.14-1,3.19,3.19,0,0,1-.12-.6c0-.13,0-.25,0-.37a1.43,1.43,0,0,0-.18-.64,2.21,2.21,0,0,1-.16-.35,2.13,2.13,0,0,0-.13-.43,2.31,2.31,0,0,1-.18-.35,1.6,1.6,0,0,1,0-.38,2.18,2.18,0,0,0,0-.57,1.63,1.63,0,0,0-.35-.66,1.34,1.34,0,0,1-.32-.5,1,1,0,0,1,0-.42,3.55,3.55,0,0,0,.08-.47,2.15,2.15,0,0,0,0-.5c0-.31-.38-.51-.6-.68a1,1,0,0,1-.23-.39,3.72,3.72,0,0,0-.21-.39c-.09-.17-.21-.29-.3-.47a5,5,0,0,0-.27-.51,1.88,1.88,0,0,0-.56-.8c-.09,0-.35-.09-.39.05s.11.19.15.24a3.5,3.5,0,0,1,.24.3,4,4,0,0,1,.16.59,2.1,2.1,0,0,0,.29.67c.18.24.44.39.63.63s.13.65.19,1c.1.48.49.89.42,1.4,0,.32-.2.62-.26.94l-.09.5a1.16,1.16,0,0,0,0,.64c.07.12.2.21.27.34a3.27,3.27,0,0,1,.26.65,3,3,0,0,1,.18,1.32c0,.47-.14.94-.13,1.41a6.69,6.69,0,0,0,.2,1c0,.2,0,.42.06.63a11.31,11.31,0,0,0,.15,1.15c.17,1,.42,1.92.66,2.87a.79.79,0,0,1,.05.3,1,1,0,0,1-.16.29,1.85,1.85,0,0,0-.19.37,1.67,1.67,0,0,0-.06.83,7.38,7.38,0,0,1,.15,1c0,.45-.07.89,0,1.34s.1.82.17,1.23a6.4,6.4,0,0,1,.09.88c0,.31,0,.63,0,.94s0,.38.07.57a.94.94,0,0,0,.15.49,2.5,2.5,0,0,1,.22.24.48.48,0,0,1,0,.39,2.22,2.22,0,0,0-.1.5c0,.12,0,.14.13.2a2.37,2.37,0,0,0,.35.19c.18.06.25,0,.31-.14s0-.34.07-.5a1.53,1.53,0,0,1,.54-.7h0c-.19.94-.41,1.87-.64,2.79" transform="translate(-1475.91 -515.1)"/><path class="cls-3" d="M1646.92,623.25a1.59,1.59,0,0,1-.21.6.7.7,0,0,1-.17.09,1.78,1.78,0,0,0-.29.32,3.15,3.15,0,0,0-.53,1,3.46,3.46,0,0,1-.23.56c-.08.13-.2.22-.27.35a1.17,1.17,0,0,0-.09.59,6,6,0,0,1-.15.85c-.08.45-.3.83-.35,1.29a1.73,1.73,0,0,1-.18.71,6.17,6.17,0,0,1-.48.54,4.58,4.58,0,0,0-.48.9,8.8,8.8,0,0,0-.26,1.13c-.13.37-.54.61-.79.9a3.66,3.66,0,0,0-.56.9c-.17.32-.4.61-.56.94a5.62,5.62,0,0,1-1,1.63,7.68,7.68,0,0,0-1,1.11,4.59,4.59,0,0,0-.56,1.21,7.6,7.6,0,0,1-.3,1.16c-.17.33-.46.63-.64,1a14.59,14.59,0,0,0-1.54,3.21,6.27,6.27,0,0,1-1.13,2.23,11.52,11.52,0,0,0-.74,1.28c-.32.54-.71,1-1,1.6-.23.38-.5.76-.69,1.16s-.34.79-.5,1.18a7.94,7.94,0,0,1-.44,1.18,3.07,3.07,0,0,1-.92.67,11.24,11.24,0,0,0-1.26.71,6.07,6.07,0,0,1-.9.5,2.23,2.23,0,0,0-.83.55,6.87,6.87,0,0,0-.77,1.16,5.1,5.1,0,0,1-1.25,1.59c-.45.35-1,.5-1.47.88a3.29,3.29,0,0,0-.69,1.49c-.28.9-1.22,1.15-2,1.49a10.56,10.56,0,0,0-2.14,1.76,21,21,0,0,1-2,1.55,5,5,0,0,0-1,.66,4.24,4.24,0,0,0-.56.88,3.42,3.42,0,0,1-1.14,1.16,5.86,5.86,0,0,1-1.18.4,13.84,13.84,0,0,1-1.45.52,1.52,1.52,0,0,0-.63.17,6.26,6.26,0,0,0-.79.56,14.18,14.18,0,0,1-1.64,1.35,3.68,3.68,0,0,1-1.64.33c-.22,0-1.08.31-1.18,0,.08-.14.28-.22.38-.35s.36-.59.54-.87a7.89,7.89,0,0,0,.51-.77c.08-.18.12-.37.2-.55.31-.66.49-1.42,1.16-1.82a1.57,1.57,0,0,0,.76-.68c.28-.56.28-1.19.59-1.74a6.37,6.37,0,0,1,.68-1,5.89,5.89,0,0,0,.87-1.18,6.48,6.48,0,0,0,.3-1.53,10.59,10.59,0,0,1,.56-1.61,5.26,5.26,0,0,1,.57-1,2.36,2.36,0,0,0,.43-1.48,3.86,3.86,0,0,1,.35-1.78c.24-.41.63-.58,1-.91a1.76,1.76,0,0,0,.47-.61,1.4,1.4,0,0,0,0-.61,1.63,1.63,0,0,1,0-.66,2.71,2.71,0,0,1,.47-.6,7.22,7.22,0,0,0,.71-.75,5.07,5.07,0,0,1,.52-.61,4.8,4.8,0,0,0,1.1-1.75c.5-1.59,2-2.95,1.85-4.73-.05-.47-.12-1-.17-1.42a10.09,10.09,0,0,1,.09-2.33,3.9,3.9,0,0,0,0-1.56,1.69,1.69,0,0,0-.28-.57c-.11-.13-.25-.22-.35-.35a2.13,2.13,0,0,1-.22-1.39,3.27,3.27,0,0,1,.21-1.73,1.5,1.5,0,0,1,.73-.4c.16-.07.44-.08.56-.18a.43.43,0,0,0,.14-.31,8.52,8.52,0,0,0,0-1.13,2.27,2.27,0,0,1,.31-1.12c.16-.31.6-.54.55-.94a1.56,1.56,0,0,0-.2-.41,4.24,4.24,0,0,0-.3-.56c-.19-.2-.7-.1-.94-.1a10.29,10.29,0,0,1-2.29-.06,1,1,0,0,1-.86-.72c-.11-.29-.14-.62-.24-.91s-.1-.36-.3-.4a3.86,3.86,0,0,0-.68,0h-1.06a8.28,8.28,0,0,0-1.3.25c-.22,0-.44,0-.65.06s-.4.11-.6.12-.42-.09-.67-.08a1.67,1.67,0,0,0-.78.35,5.6,5.6,0,0,0-.48.3.94.94,0,0,1-.34.26,2,2,0,0,1-.94,0,14,14,0,0,0-2.59.11,4,4,0,0,0-1.14.13,9.54,9.54,0,0,1-1,.31c-.13,0-.26,0-.39,0a2.32,2.32,0,0,1-.46,0,1.16,1.16,0,0,1-.79-.19c-.26-.23-.36-.56-.68-.7a3,3,0,0,0-.56-.23c-.15,0-.29,0-.44,0-.39,0-.46-.31-.77-.5a2.32,2.32,0,0,1-.42-.25c-.15-.15-.31-.3-.45-.46a1.3,1.3,0,0,1-.35-.7c0-.23-.1-.26-.22-.43s-.27-.73-.56-1-.75-.62-1.09-1a.73.73,0,0,0-.4-.22c-.19,0-.27-.06-.35-.25s-.34-.46-.47-.74a2.09,2.09,0,0,1-.13-.35,6.5,6.5,0,0,0-.12-.77c-.1-.26-.36-.31-.57-.44a1.07,1.07,0,0,1-.32-.35c-.16-.22-.11-.38-.12-.65,0-.73-.87-.51-1.23-1a.48.48,0,0,1-.07-.35.91.91,0,0,0-.12-.35,1.55,1.55,0,0,1-.06-.68v-1.76a4.28,4.28,0,0,1,.09-.61,3,3,0,0,1,.37-.79,1.94,1.94,0,0,0,.15-.9,2.73,2.73,0,0,0-.17-.93,7,7,0,0,1-.35-.73.87.87,0,0,1,.26-.73,3,3,0,0,0,.4-.4,2.83,2.83,0,0,0,.17-.4,1.61,1.61,0,0,0,.13-.65,6.23,6.23,0,0,0,.22-.82c0-.36-.45-.71-.7-.93s-.28-.21-.32-.37a2.16,2.16,0,0,1,0-.44l.35-1c.56-.59.64-1.54,1-2.23s1-1,1.32-1.52a3.32,3.32,0,0,0,.42-1.38,4.24,4.24,0,0,1,.6-2,5.84,5.84,0,0,1,1.18-1.2,14.24,14.24,0,0,1,2.26-1.17,1.37,1.37,0,0,0,.65-.67,3.75,3.75,0,0,0,.68-2.55c-.09-.35,0-.42.18-.7a9.85,9.85,0,0,0,.82-1.4,2.49,2.49,0,0,0,.33-1.3.78.78,0,0,1,.09-.54,3.08,3.08,0,0,1,.77-.57,4.45,4.45,0,0,0,.71-.66,13.76,13.76,0,0,0,1.17-2c.41-.7.18-1.19-.14-1.86-.17-.35-.28-.63-.68-.69s-.63,0-.94-.11a1.6,1.6,0,0,1-1-.54,4.52,4.52,0,0,1-.51-.94,3.77,3.77,0,0,1-.51-1.07,5.81,5.81,0,0,0-.35-1.33,1,1,0,0,1-.12-.76c.09-.22.27-.4.37-.62a1.55,1.55,0,0,0,.16-1c-.06-.15-.25-.21-.33-.36-.19-.35.09-.75-.09-1.13s-.58-.56-.6-1c0-.63.63-.87,1.14-.85a15.3,15.3,0,0,0,2-.24c.51-.05,1-.12,1.53-.2a3.13,3.13,0,0,1,1.69,0c.31.15.51.5.84.61a1.35,1.35,0,0,0,.84-.06c.49-.15.53-.49.45-1a3.07,3.07,0,0,0-.52-1.3,1.17,1.17,0,0,1-.35-.7,4.37,4.37,0,0,1,.08-.88c.08-.53-.14-.71-.46-1.11a.94.94,0,0,0-.43-.36,2.45,2.45,0,0,1-.54-.26c-.16-.15-.11-.49-.19-.69s-.29-.29-.51-.36a2.93,2.93,0,0,1-1.12-.55c-.13-.1-.15-.18-.29-.24s-.32,0-.45-.09-.19-.14-.09-.34.14-.22.35-.26a9.24,9.24,0,0,1,1.07-.1c.4-.06.77-.16,1.16-.25a9,9,0,0,1,1.16-.15c.24,0,.61,0,.79-.2a1.68,1.68,0,0,0,.27-.68,3,3,0,0,0,.09-1c0-.2,0-.71-.17-.85s-.24,0-.36-.06a.18.18,0,0,0-.2-.05,1.55,1.55,0,0,1-.43.07c-.2,0-.39.07-.6.08a4.64,4.64,0,0,0-2.23,1,1.93,1.93,0,0,1-.81.43,1.75,1.75,0,0,1-1.14-.25c-.46-.45.31-1.08.28-1.56-.3-.2-.76-.1-1.08-.25,0-.28.32-.52.4-.77a1.83,1.83,0,0,0,0-.7c0-.32-.2-.51-.25-.82a1.38,1.38,0,0,1,.16-.82,6.11,6.11,0,0,0,.44-.79,2.75,2.75,0,0,0,.18-.94c0-.32-.06-.53-.38-.64a4.47,4.47,0,0,1-.81-.25c-.26-.14-.41-.54-.69-.62a1.27,1.27,0,0,0-.54.11c-.49.13-.5.35-.2.7.1.11.23.18.2.33s-.35.48-.44.68a2.93,2.93,0,0,0-.36,1.46c0,.4.23.55,0,.94a3.18,3.18,0,0,1-1.47,1.11,2.25,2.25,0,0,1-1.25.24c-.83-.13-.62-.82-1-1.36-.23-.3-.62-.39-.86-.7a.57.57,0,0,1,0-.74c.19-.38.55-.65.73-1s0-.37,0-.59c0-1.12,1.57-.81,2.28-.89s1.83-.68,1.35-1.63c-.14-.28-.47-.43-.69-.63a2,2,0,0,1-.42-.62.94.94,0,0,1,.43-1.24,5.64,5.64,0,0,1,.77-.5,1.32,1.32,0,0,1,.75-.17c.17.06.21.22.29.36a2,2,0,0,0,.86.68c.25.14.58.31.68.61.17.47-.16,1.06.09,1.51s1.15.94,1.68,1.3a4.09,4.09,0,0,1,1.62,2,2.43,2.43,0,0,0,.94,1.3,5.87,5.87,0,0,0,.81.36c.36.17,1.31.53,1.35,1s-.52.83-.28,1.3a.87.87,0,0,0,.86.55,1.14,1.14,0,0,0,1-.73c.16-.33.31-.66.69-.76s.9-.2,1-.74c0-.2,0-.33.19-.47s.35-.1.5-.2a2.47,2.47,0,0,0,.67-1.08,1.79,1.79,0,0,0,.13-.86,4.41,4.41,0,0,0-.51-2.28,9.06,9.06,0,0,0-.61-1c-.19-.29-.29-.78.06-1a1.6,1.6,0,0,1,.7-.22.94.94,0,0,1,.71.59c.15.37,0,.76.13,1.13a2.24,2.24,0,0,0,.41,1c.56.52,1.44.09,2.09.32a.84.84,0,0,1,.57.65c.06.29,0,.31.27.43a3.42,3.42,0,0,0,.63.09,7.72,7.72,0,0,0,2.09.14,6.19,6.19,0,0,0,1-.16,2.05,2.05,0,0,1,.43-.09,2.68,2.68,0,0,0,1.09-.16.77.77,0,0,0,.21-1.06c-.21-.42-.63-.7-.79-1.16a2.16,2.16,0,0,1-.18-1.55c.19-.39.45-.22.77-.07s.76.34.7-.19a2.22,2.22,0,0,0-.63-1.45c-.3-.24-.77-.35-.94-.72s.35-.63.67-.79.88-.46.8-1-.85-.18-1.13-.14a9.12,9.12,0,0,1-1.38.07h-.54a3.38,3.38,0,0,1-.9,0c-.3-.08-.47-.37-.65-.59a5.76,5.76,0,0,1-1-1.31c-.14-.33-.11-.68-.33-1s-.82-.56-1.13-1a1.68,1.68,0,0,1-.21-1.46,4.54,4.54,0,0,0,.09-1.87,3.22,3.22,0,0,0-.34-1.22c-.21-.32-.31-.28-.61-.19s-1,.21-1.21.58c-.09.15,0,.22,0,.37s.17.5.25.76a3.71,3.71,0,0,0,.35.85c.1.18.16.26.09.46s-.23.37-.17.68a5.12,5.12,0,0,1,.16,1.1c0,.33,0,.67,0,1s-.07.83.35,1.07a6.66,6.66,0,0,0,.85.52c.42.19.77.25,1,.65a3.49,3.49,0,0,1,.51.85,2.53,2.53,0,0,1,.21.76,3.21,3.21,0,0,0,0,.62,1.17,1.17,0,0,0,.42.69,8,8,0,0,1,.63.78c.09.12.39.32.33.51s-.25.15-.33.27c.13.27.33.4.34.73a1.1,1.1,0,0,1-.45,1,1.68,1.68,0,0,1-.79.36,1,1,0,0,0-.56.32c-.13.17-.16.44-.39.49s-.3-.06-.43-.18-.5-.19-.59-.35,0-.29.08-.43a2.72,2.72,0,0,0,.22-.5c.14-.47-.18-.51-.55-.67a3.32,3.32,0,0,1-1.12-.7c-.18-.17-.38-.32-.56-.48a3,3,0,0,0-.46-.48,1,1,0,0,1-.28-.23c0-.08-.09-.23-.14-.32-.29-.48-.53-.92-1.14-.55-.24.15-.3.38-.56.5a3.27,3.27,0,0,0-.69.42c-.26.23-.39.4-.76.4a.64.64,0,0,1-.62-.35,2.9,2.9,0,0,0-.29-.52c-.21-.19-.59-.05-.86-.09-.56-.09-.34-.56-.41-1a4.63,4.63,0,0,0-.55-1.52,5.29,5.29,0,0,0-.74-1,2.45,2.45,0,0,1-.44-.77,1.09,1.09,0,0,1-.17-.6,3.55,3.55,0,0,1,.25-1.07c.23-.49.8-.61.8-1.22a5.15,5.15,0,0,1,0-1,1.71,1.71,0,0,1,.14-.55c.11-.19.25-.38.36-.57a2.32,2.32,0,0,0,.22-.41c.08-.25-.08-.37-.22-.55a1.33,1.33,0,0,1-.26-.94,9,9,0,0,0,0-1.16.83.83,0,0,0-.25-.56c-.16-.15-.38-.19-.48-.4s0-.64.11-.94a1.88,1.88,0,0,1,.18-.38,1.12,1.12,0,0,0,0-.6c-.15-.43-.77-.71-.82-1.19s.58-.72.93-.81a3.08,3.08,0,0,0,1.29-.55c.1-.09.06-.12.2-.15a1.46,1.46,0,0,1,.36,0c.23,0,.46,0,.69,0,.56,0,.66.52,1.09.75a1.27,1.27,0,0,0,.67.12,2,2,0,0,1,1.24.44c.14.15.21.3.4.39s.35,0,.52.06.32.44.54.6a1.24,1.24,0,0,0,.51.26,1.53,1.53,0,0,0,.3,0,5.67,5.67,0,0,1,.57.1c.26.06.39.23.62.35a4.11,4.11,0,0,0,.6.17,1.54,1.54,0,0,1,.77.52,6,6,0,0,0,1.29.94,6.37,6.37,0,0,1,.55.35c.1.06.22.18.34.19l.33.43a.75.75,0,0,0,.2.5c.14.18-.09.34-.24.39s-.15,0-.21-.05-.19,0-.27,0-.08-.06-.13-.08a.52.52,0,0,1-.13-.06.42.42,0,0,1-.19-.16,1.28,1.28,0,0,0-.49-.4.38.38,0,0,0-.15,0H1619a1,1,0,0,1-.41-.06,1.33,1.33,0,0,1-.3-.18,1.24,1.24,0,0,0-.18-.14.24.24,0,0,1-.08-.06s0,0,0,0a.58.58,0,0,0-.32,0,.32.32,0,0,0-.21.13.18.18,0,0,0,0,.13s.11,0,.15.07a1.09,1.09,0,0,0,.34.17c.09,0,.16.1.26.13l.2,0,.24.07c.06,0,.08.06.13.09a.33.33,0,0,0,.1.06l.42.27a.59.59,0,0,1,.23.38,2.45,2.45,0,0,1,0,.27.5.5,0,0,0,.22.28,2,2,0,0,0,.57.26c.22,0,.45,0,.67.08a1.25,1.25,0,0,1,.26.07.69.69,0,0,1,.16.18l.35.39c0,.06.11.1.16.15a.6.6,0,0,1,.06.11,1,1,0,0,1,.11.17,1.48,1.48,0,0,0,.25.35c.13.11.31.15.43.27s.12.23.25.23.17-.31.18-.42a.78.78,0,0,0-.12-.45c-.1-.17-.2-.34-.31-.5s-.21-.33-.33-.49a1.86,1.86,0,0,1-.23-.32,2.4,2.4,0,0,1-.16-.27,1.72,1.72,0,0,1-.07-.21,2.79,2.79,0,0,0-.12-.34,1.59,1.59,0,0,0-.07-.2.64.64,0,0,1-.1-.13s0,0,0-.07v-.32a4.17,4.17,0,0,1,0-.5.87.87,0,0,1,.1-.25A86.47,86.47,0,0,0,1499,543.67c.54-.6,1.08-1.19,1.64-1.77l.26-.07c.32-.07.66-.1,1-.19s.71-.21.75-.52a2.29,2.29,0,0,1,0-.37c.06-.19.29-.22.45-.28a.75.75,0,0,0,.37-.23,1.18,1.18,0,0,1,.11-.19,2.76,2.76,0,0,1,.51-.39c.21-.12.44-.21.65-.34a7.8,7.8,0,0,0,1.29-1.07,2.76,2.76,0,0,0,.51-.67c.15-.26.31-.51.48-.76a3.16,3.16,0,0,1,.81-.86c.2-.14.3-.23.53-.11s.5.25.51.56a1.35,1.35,0,0,0,.09.6c.29.5,1.08-.45,1.48-.12.07.06.11.13.2.16a.68.68,0,0,0,.37,0l1.51-.31c.39-.08.91-.3,1.27,0a6.26,6.26,0,0,0,.51.39,2.12,2.12,0,0,0,1.32.28,1.38,1.38,0,0,0,.79-.53c.16-.2.23-.44.38-.64a2.33,2.33,0,0,1,1-.72,2.27,2.27,0,0,0,.79-.4,5.69,5.69,0,0,0,.68-.93,2.28,2.28,0,0,0,.36-.67,2.51,2.51,0,0,0,0-.55.71.71,0,0,1,.44-.68,3.64,3.64,0,0,0,.92-.47c.12-.11.22-.25.35-.35s.67-.4.93-.3.15.38.11.53a2.53,2.53,0,0,1-.3.89,17.53,17.53,0,0,0-1.37,2.06c-.08.19-.15.57.19.52a4.77,4.77,0,0,0,.51-.13,3,3,0,0,1,.43-.08h.14c.1.08,0,.41,0,.49a1.48,1.48,0,0,1-.14.42c-.09.14-.18.13-.3.21a1.65,1.65,0,0,0-.29.3,2.49,2.49,0,0,0-.4.46c-.05.1-.24.38-.09.46s.13,0,.18,0a2.82,2.82,0,0,0,.48-.27,2.23,2.23,0,0,1,.82-.43,1.35,1.35,0,0,0,.5-.17,8.32,8.32,0,0,0,1.09-.69,2.47,2.47,0,0,0,.58-.74,3.29,3.29,0,0,1,.48-.58,1.94,1.94,0,0,1,.65-.43,2.22,2.22,0,0,1,.67-.18c.14,0,.19.07.27.19a1.83,1.83,0,0,1,.23.38.87.87,0,0,1-.45,1,4.46,4.46,0,0,0-.43.33,1.37,1.37,0,0,0-.25.23c-.08.14,0,.25,0,.4s-.06.38-.3.5l-.84.42c-.25.12-.51.21-.76.33a4.56,4.56,0,0,0-1.08.73c-.08.07-.18.21-.31.22s-.31-.12-.44-.17a1.11,1.11,0,0,0-.64-.08c-.09,0-.13.17-.18.26s-.17.26-.27.38a1.56,1.56,0,0,1-.35.45,1.6,1.6,0,0,1-.78.22c-.31,0-.61.07-.92.12s-.42.1-.64.13a1.23,1.23,0,0,0-.38.08.47.47,0,0,0-.23.27c0,.13.06.24.11.36a.89.89,0,0,1,0,.58.94.94,0,0,1-.37.47c-.17.13-.34.28-.5.43a1,1,0,0,0-.34.38.64.64,0,0,0,0,.24,1.23,1.23,0,0,1,0,.38c-.1,0-.19-.12-.3-.15H1516a1.93,1.93,0,0,1-.34,0,4.57,4.57,0,0,1-.61-.16,1.28,1.28,0,0,1-.37-.14c-.18-.08-.25-.12-.41,0s-.38.22-.56.36-.13.21-.14.39a2,2,0,0,1-.14.46c0,.11,0,.24-.12.32l-.14.07a3.16,3.16,0,0,1-.54.2l-.54.15a.51.51,0,0,0-.21.1,1.16,1.16,0,0,0-.3.39c-.11.21-.23.43-.32.65s-.13.35-.22.53a1.61,1.61,0,0,1-.75.66c-.43.26-.89.46-1.34.69a.45.45,0,0,0-.26.21c-.09.11-.21.19-.3.3l-.31.39c-.23.28-.59.67-.51,1.06s.36.41.52.66,0,.32,0,.47a1.26,1.26,0,0,1-.13.54,2.3,2.3,0,0,0-.21.33c-.06.16-.13.31-.19.47a.58.58,0,0,0,0,.43c0,.08,0,.21.09.26s.15,0,.19.06a1.11,1.11,0,0,0,.21.08h.23a2.7,2.7,0,0,1,.9.08.65.65,0,0,1,.4.21,2.68,2.68,0,0,1,.18.33c0,.09.12.15.15.25a.88.88,0,0,0,.1.22,1,1,0,0,1,.09.22c0,.08.07.05.12.1.21.24.37.43.7.42l.31.26c.11.06.26.08.34.17s.08.18.13.26a.7.7,0,0,0,.36.36,4.28,4.28,0,0,0,.58.12c.44.09.88.17,1.32.22a.64.64,0,0,1,.26,0c.11.07.06.3,0,.41a1.69,1.69,0,0,1-.17.62c-.12.26-.29.49-.41.74a4.31,4.31,0,0,0-.27.76,2.36,2.36,0,0,0,0,1.15c.06.29.25.36.46.53a2.16,2.16,0,0,1,.39.51c.09.15.23.44.4.52a1.76,1.76,0,0,0,.41.07,1.39,1.39,0,0,1,.26.1.64.64,0,0,0,.45-.06,2.36,2.36,0,0,0,1.11-1.86c.11-.63,0-1.29.14-1.91a1.33,1.33,0,0,1,.45-.72c.26-.2.56-.35.82-.55a10.94,10.94,0,0,0,1.63-1.56,4.52,4.52,0,0,0,.92-1.45,3.33,3.33,0,0,0,.1-1.37.54.54,0,0,0-.16-.41c-.12-.11-.28-.14-.39-.27-.33-.38.12-.76.41-1a4.59,4.59,0,0,0,.88-.7,1.8,1.8,0,0,0,.38-1,5.26,5.26,0,0,1,0-1c.11-.38.5-.62.75-.92a2.1,2.1,0,0,0,.37-.93c.06-.28.08-.48.38-.56a3.9,3.9,0,0,1,.9-.12c.49,0,1,.14,1.48.13l.76,0c.32,0,.74,0,.94.31s.37.54.57.79.19.24.35.25a3.26,3.26,0,0,0,.62-.06,1.21,1.21,0,0,1,1.1.37c.21.27.06.54-.12.77s-.31.31-.27.58a1.47,1.47,0,0,1,0,.75,2.4,2.4,0,0,1-.23.38c0,.07,0,.08,0,.15s-.19.27-.31.39l-.39.34c-.08.06-.18.1-.17.21a.69.69,0,0,0,.6.16c.2,0,.39-.06.6-.07a.9.9,0,0,1,.28,0c.16.06.19.15.3.26s.33.33.53.32a1.22,1.22,0,0,0,.36-.14,4.45,4.45,0,0,0,.48-.26,2.84,2.84,0,0,0,.59-.56.78.78,0,0,1,.46-.33c.18-.06.37-.08.56-.14a2,2,0,0,0,.51-.28,1.11,1.11,0,0,0,.42-.47.81.81,0,0,1,.48-.35c.15,0,.32-.14.47,0s.16.36.19.48a3.77,3.77,0,0,0,.14.58,1,1,0,0,0,.48.53c.08.07.19.12.2.25s0,.15,0,.21a.77.77,0,0,0,.22.45,3.14,3.14,0,0,0,.4.34,1.85,1.85,0,0,1,.46.94,1.52,1.52,0,0,1,0,.94c-.14.28-.73.47-.58.86a3,3,0,0,0,.68.87,3.46,3.46,0,0,1,.39.63c0,.09.1.34.19.4a.55.55,0,0,0,.18,0l.27,0c.36,0,.7.13,1.05.21a2.51,2.51,0,0,1,.84.27c.09.07.16.19,0,.26a1.56,1.56,0,0,1-.44.07,2.64,2.64,0,0,0-.45.15,3.11,3.11,0,0,0-1.07.72c-.06.07-.22.22-.22.32s.13.07.21,0c.49-.13,1-.17,1.48-.35a1.5,1.5,0,0,1,.6-.05,1.36,1.36,0,0,1,.53.07c.16.07,0,.17.09.3s.25.12.37.09.36-.17.55-.22a1.06,1.06,0,0,1,.5,0c.38.09.44.46.4.8a1.69,1.69,0,0,1-.12.55c0,.1-.16.15-.22.24a.51.51,0,0,0-.09.46c0,.08.1.13.13.22s.15.34.23.51.12.23,0,.31a3.38,3.38,0,0,1-.69.26,2.65,2.65,0,0,1-.62.14,3.38,3.38,0,0,0-.78,0c-.41.11-.75.39-1.16.52s-.93.13-1.37.32-.59.33-.89.48a3.78,3.78,0,0,1-.64.31,1.77,1.77,0,0,1-.56.09,2.09,2.09,0,0,0-.35,0,4.79,4.79,0,0,0-.75.17,6.15,6.15,0,0,1-1.19.25,2.78,2.78,0,0,1-.76-.09,2.39,2.39,0,0,0-.46-.12,1.51,1.51,0,0,0-.42.05l-.51.07a10,10,0,0,1-1.19.23,6.61,6.61,0,0,0-1.09,0,3.44,3.44,0,0,0-.93.38,5.18,5.18,0,0,0-.57.31c-.09.06-.17.14-.26.19s-.34.18-.51.29c-.39.26-.79.52-1.19.76a3.9,3.9,0,0,1-.74.36,2.62,2.62,0,0,0-.39.15,1.86,1.86,0,0,0-.27.22,4.66,4.66,0,0,0-.51.48c-.11.13-.2.29-.3.43a3.17,3.17,0,0,1-.53.57.76.76,0,0,0-.35.55.94.94,0,0,0,0,.29c.06.1.22,0,.29-.06.31-.23.59-.5.88-.74.06-.06.14-.07.22-.12a1.24,1.24,0,0,0,.18-.14,1.85,1.85,0,0,1,.37-.25,4.25,4.25,0,0,0,.46-.27.63.63,0,0,1,.32-.1.66.66,0,0,0,.41-.3,2,2,0,0,1,.19-.22,1.89,1.89,0,0,1,.3-.19,3.11,3.11,0,0,1,.41-.2c.1,0,.21,0,.31-.07a6.57,6.57,0,0,0,1.19-.66,2.31,2.31,0,0,1,.35-.18l.29,0,.73-.09h.32c.13,0,.23-.07.35,0s.22.09.34.12a.36.36,0,0,1,.24.11c.17.22,0,.64-.14.81a1.26,1.26,0,0,1-.26.21,2.25,2.25,0,0,0-.37.31c-.07.05-.17.19-.24.21s-.25,0-.35-.06a1.39,1.39,0,0,0-.67-.07c-.09,0-.19.07-.17.18a.57.57,0,0,0,.23.3c.15.11.29.28.48.31h.18l.24.05a1.09,1.09,0,0,0,.31.08,1.15,1.15,0,0,1,.32,0,.48.48,0,0,1,.3.51.66.66,0,0,1-.13.36.76.76,0,0,0-.17.23.63.63,0,0,0,.17.57,1.29,1.29,0,0,0,.39.23c.12.06.11.11.18.2s.43.06.64.17a1.57,1.57,0,0,0,.33.19,1.14,1.14,0,0,0,.25.06,2.33,2.33,0,0,0,.69.12c.29,0,.56,0,.7-.3a.8.8,0,0,0,0-.31c0-.13,0-.16.16-.2l.43-.17c.22-.08.43-.12.53-.37a.47.47,0,0,1,.21-.23,1.77,1.77,0,0,1,.22-.16.28.28,0,0,1,.41.2,1.34,1.34,0,0,1,0,.4c0,.14-.12.28-.08.41s.11.16.22.22a.23.23,0,0,1,.11.3c-.06.26-.34.27-.55.33a.82.82,0,0,1-.27.06h-.17a.48.48,0,0,0-.17,0c-.09,0-.14.19-.22.25l-.22.48a3.12,3.12,0,0,0-.77.24c-.34.1-.71.17-1.07.24a9.87,9.87,0,0,0-1.77.41,2.43,2.43,0,0,0-.83.67c-.2.23-.71.75-1,.49-.06,0-.08-.14-.14-.19a.4.4,0,0,0-.26-.08c-.22,0-.51-.08-.64-.28a1.18,1.18,0,0,1,.22-.28,2.06,2.06,0,0,1,.43-.35c.35-.22.73-.38,1.08-.6.19-.12.42-.26.48-.49a.42.42,0,0,0,0-.35c-.08-.07-.16,0-.23.08s-.26.13-.38.21a3.4,3.4,0,0,1-1.48.29,2.5,2.5,0,0,0-1,.37c-.18.11-.35.35-.56.4s-.3,0-.44,0a2.12,2.12,0,0,0-.57.08,2.67,2.67,0,0,0-.43.25,4.26,4.26,0,0,1-1.13.51,2.21,2.21,0,0,0-.8.3,1.84,1.84,0,0,0-.62.79c-.07.19-.06.4-.11.59s-.27.26-.38.42a2.21,2.21,0,0,0-.26.64.53.53,0,0,0,0,.41c.06.16.16.31.22.48s.05.2-.09.22a9.74,9.74,0,0,1-1.43.12,3.63,3.63,0,0,0-1.14,0,1.52,1.52,0,0,0-.7.44c0,.08.22.2.28.25s.22.25.07.39a1,1,0,0,1-.85.1,1.2,1.2,0,0,0-.5,0,1.32,1.32,0,0,0-.38.13c-.27.18-.13.49-.13.75a1,1,0,0,1-.14.56,1.55,1.55,0,0,1-.69.4c-.16,0-.56,0-.66.14s0,.36,0,.48a.71.71,0,0,1-.13.46c-.1.17-.13.6-.39.56-.09,0-.31,0-.37-.13s0-.3,0-.41a1.94,1.94,0,0,1,0-.48,1.69,1.69,0,0,0,.07-.38c0-.11-.06-.28-.19-.29s-.33.26-.41.38a3.37,3.37,0,0,1-.47.53c-.12.12-.36.29-.35.48a3.07,3.07,0,0,0,.13.5,1.67,1.67,0,0,1-.08.7,3.82,3.82,0,0,0-.11.57.7.7,0,0,0,0,.38.75.75,0,0,0,.34.32c.33.22.75.46.58.9a1.09,1.09,0,0,1-.36.46.48.48,0,0,0-.15.42.83.83,0,0,1-.13.53,1.09,1.09,0,0,1-.41.29l-.48.24a5.22,5.22,0,0,1-.56.18c-.17.07-.2.16-.27.32a2.37,2.37,0,0,1-.32.61c-.11.13-.3.16-.44.23s-.41.27-.61.39a9.94,9.94,0,0,0-1.75,1.28,6.79,6.79,0,0,0-.9,1.16,4.63,4.63,0,0,0-.74,1.79,4.06,4.06,0,0,0,.13,1.51c0,.2.07.41.13.61s.12.33.17.49a1.71,1.71,0,0,1,.14.49c0,.14,0,.27,0,.41a8.39,8.39,0,0,0,0,1.12,7.67,7.67,0,0,0,.25,1.23c.06.21.14.43.19.65a2.57,2.57,0,0,0,.2.59c.08.18.22.36.16.56s-.16.21-.29.28a4.25,4.25,0,0,0-.54.32.45.45,0,0,1-.34.12.77.77,0,0,1-.54-.41,5.89,5.89,0,0,1-.36-.94c-.13-.33-.26-.65-.41-1a4.39,4.39,0,0,0-.32-.51,3.31,3.31,0,0,0-.15-.33,3.64,3.64,0,0,1-.38-.66.65.65,0,0,1,0-.62c.07-.12.18-.21.24-.33a.68.68,0,0,0,0-.4,1.07,1.07,0,0,0-.19-.44,1.16,1.16,0,0,0-.24-.34c-.07-.06-.21-.09-.27-.17s0-.22,0-.32-.05-.62-.38-.6a1.2,1.2,0,0,0-.31.13l-.26.1-.27.13a1.27,1.27,0,0,1-.6.12c-.08,0-.12-.08-.19-.11a1.64,1.64,0,0,1-.3-.14.58.58,0,0,1-.22-.4,1.2,1.2,0,0,0,0-.5c0-.11-.07-.15-.18-.15a2.33,2.33,0,0,0-.37,0,4.34,4.34,0,0,0-.6.14,1.67,1.67,0,0,1-.32.08,6,6,0,0,1-.73,0c-.37,0-.73,0-1.1,0a.62.62,0,0,0-.49.17c-.06.06-.38.23-.35.35s.21.07.27.09a.45.45,0,0,1,.19.15c.07.1.17.19.24.28s0,.38,0,.55a.27.27,0,0,1-.35.23c-.19-.05-.24-.25-.46-.25a4.69,4.69,0,0,0-.53,0,1.75,1.75,0,0,1-.4,0h-.52c-.17,0-.16-.1-.09-.22a.38.38,0,0,0,0-.44c-.12-.19-.43-.12-.63-.12H1495a1.65,1.65,0,0,0-.31,0,.65.65,0,0,0-.56.21,2,2,0,0,0-.44.61c-.05.1-.06.19-.14.26a2.82,2.82,0,0,1-.39.29,1.58,1.58,0,0,1-.71.32.36.36,0,0,0-.29.13.89.89,0,0,0-.08.32,3.58,3.58,0,0,0-.09.45,1.06,1.06,0,0,1-.13.55l-.15.26c-.09.13-.2.22-.29.34-.22.31,0,.77,0,1.11a1.51,1.51,0,0,1,0,.43,2.36,2.36,0,0,0,0,.46,1.65,1.65,0,0,1-.14,1c-.14.19-.46.27-.38.56a1.64,1.64,0,0,1,.13.43,3.84,3.84,0,0,1,0,.48c0,.18-.17.3-.21.47s0,.17,0,.25l-.06.21a3.65,3.65,0,0,0,0,.47l.25.61v.66a.83.83,0,0,0,.06.35,3.46,3.46,0,0,0,.23.56,2.06,2.06,0,0,1,.21.42,1.8,1.8,0,0,1,.06.32,1.53,1.53,0,0,0,.29.86c.07.07.18.11.23.21s0,.1,0,.15a1.48,1.48,0,0,0,.08.13,2.62,2.62,0,0,1,.13.48c0,.09.07.19.1.29a.55.55,0,0,0,.1.22,1.29,1.29,0,0,1,.16.17l.24.31a3.39,3.39,0,0,0,.31.34l.22.18c.23.2.46.4.7.58a.85.85,0,0,0,1.08.11.76.76,0,0,1,.27-.2,1.37,1.37,0,0,1,.28,0h.39c.08,0,.21,0,.27,0s.08-.17.12-.26a.51.51,0,0,1,.25-.29,1.27,1.27,0,0,0,.31-.2,1,1,0,0,0,.22-.27,3.82,3.82,0,0,0,.24-.55,1.42,1.42,0,0,0,.13-.5v-.5c0-.39.06-.88.48-1.06a1.28,1.28,0,0,1,.34-.06,3.62,3.62,0,0,0,.59-.12,3.76,3.76,0,0,0,.67-.32.78.78,0,0,1,.32-.12,5.56,5.56,0,0,1,.71,0c.12,0,.27,0,.32.15a1.25,1.25,0,0,1,0,.51c0,.09,0,.21,0,.3s-.06.09-.1.14a1.37,1.37,0,0,0-.15.38,2.76,2.76,0,0,0-.2.47,3.45,3.45,0,0,1-.12.46,1,1,0,0,0-.12.41c0,.15.06.29.06.44s0,.18,0,.26a.59.59,0,0,1,0,.19,1.87,1.87,0,0,1-.15.32s-.06.16-.12.18-.2,0-.28,0,0,.12,0,.17,0,.08,0,.13a1.41,1.41,0,0,0,0,.29v1.27a2.61,2.61,0,0,1-.09,1,1,1,0,0,0-.11.29,1.82,1.82,0,0,0,0,.33,1.14,1.14,0,0,0,.07.41c0,.11.11.13.23.14s.26,0,.37,0l.35,0c.21,0,.42,0,.62,0a10.6,10.6,0,0,0,1.26,0,5.51,5.51,0,0,0,.57-.06c.17,0,.34,0,.51-.08a.86.86,0,0,1,.55,0,1.46,1.46,0,0,1,.34.26c.11.11.26.19.36.31s.1.14.19.16a.29.29,0,0,1,.15.09.84.84,0,0,1,.2.29,1.33,1.33,0,0,1,0,.21,3.43,3.43,0,0,0,.09.44,1.89,1.89,0,0,1,0,.41,2.33,2.33,0,0,1,0,.53,2.91,2.91,0,0,0,0,.51c0,.16,0,.32,0,.48a.57.57,0,0,0,0,.26c0,.17.11.32.15.49a2.92,2.92,0,0,1,0,.59v.69c0,.13,0,.25,0,.38a2.43,2.43,0,0,1,0,.27,1.07,1.07,0,0,0,.1.39l.1.17c0,.06.06.14.12.18a2,2,0,0,0,.2.11.88.88,0,0,1,.15.12l.32.32a.91.91,0,0,0,.17.17,1,1,0,0,1,.15.14c.11.14.28.24.32.42a1.42,1.42,0,0,0,.11.31.58.58,0,0,0,.28.3,1.54,1.54,0,0,0,.19.08.89.89,0,0,0,.23,0h.61a.6.6,0,0,0,.23,0l.18,0a.5.5,0,0,1,.12-.08c.06,0,.11,0,.16-.06a1.19,1.19,0,0,1,.16-.08,2.27,2.27,0,0,1,.25-.06.78.78,0,0,0,.37-.28.83.83,0,0,0,.11-.15s0-.1.08-.12.28.1.36.17.25,0,.33.1l.4.17a.52.52,0,0,1,.33.25c.07.16.1.33.17.48.15.37.61.35.94.39a1.94,1.94,0,0,1,.48.09.28.28,0,0,0,.13,0,.56.56,0,0,0,.27-.1,4.16,4.16,0,0,0,1-1.1,9.75,9.75,0,0,0,.61-1.09,2.52,2.52,0,0,0,.21-.54c0-.16.06-.34.1-.5s.1-.37.28-.39.32,0,.47,0a4.21,4.21,0,0,0,.51-.12,3.58,3.58,0,0,0,1-.41l.39-.28a1,1,0,0,1,.38-.22,1.19,1.19,0,0,1,.42,0,1.92,1.92,0,0,1,.41,0c.22.06,0,.37,0,.49s-.11.38-.17.57a1.28,1.28,0,0,0-.07.39c0,.18,0,.35,0,.52a2.52,2.52,0,0,0,0,.48.74.74,0,0,0,.16.4,4,4,0,0,0,.26.35.49.49,0,0,0,.68.12.57.57,0,0,0,.33-.54c0-.17-.06-.35-.08-.52a2.56,2.56,0,0,1,0-.62c0-.17,0-.38.16-.47a2.17,2.17,0,0,1,1-.19,1.31,1.31,0,0,1,.56.12c.28.13.5.32.78.44a2.14,2.14,0,0,0,.42.16,1.09,1.09,0,0,1,.3.07,3,3,0,0,0,1.11.23,5.41,5.41,0,0,1,1.45,0l.23.08a1.4,1.4,0,0,1,.29.09,2.22,2.22,0,0,0,.88.17l.48,0a2.31,2.31,0,0,0,.46-.05,3.9,3.9,0,0,1,.57-.13,2.54,2.54,0,0,1,.55,0,2.75,2.75,0,0,1,.5.09c.18,0,.37.07.55.12s.29.1.43.15l.22,0a2.43,2.43,0,0,0,.85.28,2.21,2.21,0,0,1,.35,0,.55.55,0,0,1,.17.05,1.15,1.15,0,0,1,.51.76.39.39,0,0,1,0,.35,1.77,1.77,0,0,0-.12.17,1,1,0,0,0-.09.22.84.84,0,0,0,0,.35c0,.08.13.1.2.1a4.55,4.55,0,0,0,.53,0c.2,0,.41-.08.61-.08a2.35,2.35,0,0,1,1.07.26,1.31,1.31,0,0,1,.27.12,1.71,1.71,0,0,1,.2.18l.6.62a1,1,0,0,1,.28.42.81.81,0,0,0,.07.22,1.31,1.31,0,0,0,.22.25c.18.17.49.15.72.19a1.08,1.08,0,0,1,.46.18,3.64,3.64,0,0,1,.45.43,3.69,3.69,0,0,0,.25.34.42.42,0,0,0,.27,0h.44a2.58,2.58,0,0,0,.48,0,1.91,1.91,0,0,1,.48-.06,2.22,2.22,0,0,1,.5.1.79.79,0,0,0,.4.05,3.58,3.58,0,0,0,.35-.11.45.45,0,0,1,.28,0l.27.06a.78.78,0,0,1,.22,0c.13.07.23.18.36.26a.94.94,0,0,0,.46.13h.18a.19.19,0,0,1,.13,0,2.08,2.08,0,0,1,.74.38,2,2,0,0,1,.26.24,1.11,1.11,0,0,0,.28.24.37.37,0,0,0,.17.1h.16a.82.82,0,0,1,.22,0,1.53,1.53,0,0,1,.32.13c.11.09.19.21.3.3a2.6,2.6,0,0,0,.64.44l.3.13a.36.36,0,0,1,.23.17,1.22,1.22,0,0,1,.13.57c0,.19,0,.37,0,.56a.61.61,0,0,0,0,.13.65.65,0,0,0,0,.14v.23a.37.37,0,0,0,0,.2l.06.12c0,.05,0,.11.09.16l.28.29a.43.43,0,0,0,.27.13c.32.07,1,.26.68.62a1.47,1.47,0,0,0-.22.41,2.4,2.4,0,0,0-.12.38c0,.12,0,.25-.06.37s-.44.18-.55.33a3,3,0,0,1-.55.58c-.16.13-.23.31-.4.43s-.18.33-.36.47a1.91,1.91,0,0,0-.52.5.19.19,0,0,0,.28.25c.16-.09.29-.25.46-.34s.24,0,.36-.11a1.75,1.75,0,0,0,.32-.29,4.15,4.15,0,0,0,.43-.58c.09-.15.16-.31.35-.31a3.84,3.84,0,0,0,.76,0c.13,0,.25,0,.38-.08a.44.44,0,0,1,.3,0,2.17,2.17,0,0,1,.56.3.59.59,0,0,1,.23.69c0,.25-.27.29-.47.42s-.19.12-.18.24.07.19.13.21a.84.84,0,0,0,.32-.08c.22-.09.46-.15.67-.26a3,3,0,0,0,.4-.3,4.18,4.18,0,0,1,.65-.37.32.32,0,0,1,.27,0,.5.5,0,0,1,.22.13.52.52,0,0,0,.39.18c.23,0,.44,0,.66.08a4.32,4.32,0,0,1,1.08.13,2.9,2.9,0,0,1,.51.29c.16.1.54.25.59.45s0,.24,0,.36a.74.74,0,0,0,0,.33c0,.12.07.13.2.14a3.28,3.28,0,0,0,.52-.08,4.91,4.91,0,0,1,1.71-.11,1.43,1.43,0,0,1,.22,0,.6.6,0,0,1,.13.09,1,1,0,0,0,.51.15,1.46,1.46,0,0,1,.2-.05c.11,0,.28.15.39.2a1.18,1.18,0,0,0,.53.06h1.12a3.38,3.38,0,0,1,.84,0,2.8,2.8,0,0,1,.69.35c.49.32,1,.55,1.53.85s.78.49,1.17.74a2.32,2.32,0,0,0,.66.35l.39.09a6.34,6.34,0,0,0,.76,0,1.68,1.68,0,0,1,.55,0c.19.08.13.3.12.47s0,.29,0,.43a4,4,0,0,0,0,.49,1.5,1.5,0,0,0,.15.55,1.94,1.94,0,0,1,.24.7,4.66,4.66,0,0,1-.09.75,3.33,3.33,0,0,1,0,.84c-.06.18-.11.36-.15.53a1.69,1.69,0,0,1-.19.56,4.93,4.93,0,0,1-.39.4c-.15.13-.33.21-.48.32a4,4,0,0,1-.78.44,2.18,2.18,0,0,0-.54.29c-.12.09-.23.13-.31.26a1.06,1.06,0,0,0-.11.21,1.43,1.43,0,0,1-.36.45.75.75,0,0,0-.25.47,1,1,0,0,1-.13.48c-.09.16-.13.5-.34.53s-.42,0-.48-.19,0-.3-.07-.45a.27.27,0,0,0-.37-.07c-.1.09,0,.32-.07.44a1.48,1.48,0,0,0-.07.42c0,.15,0,.29,0,.44a2.43,2.43,0,0,0,0,.27,2.56,2.56,0,0,1,0,.62.49.49,0,0,0,0,.16,1.22,1.22,0,0,0,0,.27,2.59,2.59,0,0,0,.14.45,1.23,1.23,0,0,1-.08,1.18.33.33,0,0,0-.11.33.68.68,0,0,0,.08.24.84.84,0,0,1,.06.39.51.51,0,0,1-.06.32,5.76,5.76,0,0,1-.35.51,1.65,1.65,0,0,0-.3.53,2.06,2.06,0,0,1-.12.35.22.22,0,0,0,0,.16,2.17,2.17,0,0,1-.14.88c-.17.33-.51.48-.78.71a.69.69,0,0,0-.3.48c0,.09,0,.17,0,.26a1.22,1.22,0,0,1,0,.27,2.46,2.46,0,0,1-.14.38.45.45,0,0,1-.25.22,3.54,3.54,0,0,0-.51.35,2.71,2.71,0,0,1-.41.23c-.11,0-.23,0-.34.08s-.13.06-.22.08l-.26,0a3.52,3.52,0,0,1-.56,0l-1,.22c-.1.08-.25.1-.36.18s-.25.14-.38.21-.24.14-.37.2a2.44,2.44,0,0,1-.28.14,2.64,2.64,0,0,1-.28,0l-.17,0a2.24,2.24,0,0,0-1,.67c-.18.2-.35.4-.54.58s-.39.35-.57.53a1.47,1.47,0,0,0-.48.81c0,.22.17.4.26.59a2.48,2.48,0,0,1,.17.48,1.35,1.35,0,0,1,0,1.08,5.14,5.14,0,0,0-.47.9,4.42,4.42,0,0,0-.14.63,1.28,1.28,0,0,1-.14.47c-.19.29-.52.48-.73.75s-.19.3-.28.44-.21.51-.35.72-.3.27-.42.41a2.52,2.52,0,0,0-.21.25,1.33,1.33,0,0,0-.1.34.9.9,0,0,1-.25.36,2.49,2.49,0,0,1-1.47.34,1.32,1.32,0,0,1-1-.17,1.15,1.15,0,0,0-.51-.3,1.6,1.6,0,0,0-.65.12c-.17.08-.07.21,0,.34a2.46,2.46,0,0,0,.17.27,2.88,2.88,0,0,0,.67.68,8.91,8.91,0,0,1,1,.84.73.73,0,0,1,.28.64,1.12,1.12,0,0,1-.31.71.87.87,0,0,1-.52.17c-.45,0-.91,0-1.37.07-.26,0-.51,0-.77,0a1,1,0,0,0-.45,0c-.16.08-.17.24-.13.4a.7.7,0,0,0,.25.36,1,1,0,0,1,.3.82c0,.25-.11.25-.34.25a2.53,2.53,0,0,1-.55,0c-.13,0-.21-.12-.33-.16a.85.85,0,0,0-.63.09c-.13.15.16.4.27.49a1.29,1.29,0,0,0,.55.27c.23.06.48,0,.71.06a.42.42,0,0,1,.27.52.37.37,0,0,1-.14.16.72.72,0,0,0-.19.2c-.11.17-.14.21-.07.41a2.76,2.76,0,0,0,.25.44c.08.14.23.37.14.53s-.18.15-.27.22-.13.19,0,.35a.67.67,0,0,0,.49.3,2.08,2.08,0,0,1,.7.14,4.78,4.78,0,0,1,.61.38.94.94,0,0,1,.24.91c0,.29,0,.33.23.5a.64.64,0,0,1,.22.38,2.81,2.81,0,0,0,.26.52.92.92,0,0,0,.27.35c.13.1.26.2.39.32a1,1,0,0,0,.38.24l.3.1a3.58,3.58,0,0,1,.35.09c.11,0,.18.19.26.27a4.23,4.23,0,0,0,.4.24,2.51,2.51,0,0,0,.73.17,2.6,2.6,0,0,0,.4.1h.38c.19,0,.29,0,.32.22s.13.38,0,.46-.16,0-.23,0a.72.72,0,0,0-.35-.08h-.55a1.11,1.11,0,0,1-.51,0,1.23,1.23,0,0,0-.47,0,1.91,1.91,0,0,1-.62-.13c-.11,0-.13-.11-.21-.17s-.16-.05-.25-.09a2.29,2.29,0,0,1-.31-.16,3.39,3.39,0,0,0-.45-.15,2.56,2.56,0,0,0-.64-.22,3,3,0,0,1-1-.05,1.45,1.45,0,0,1-.4-.34,8.73,8.73,0,0,0-1.1-.82c-.28-.17-.57-.3-.85-.46a5.11,5.11,0,0,1-.48-.33l-.51-.36c-.2-.15-.38-.34-.58-.5s-.49-.35-.73-.53a2.1,2.1,0,0,1-.62-.74,1.12,1.12,0,0,1-.09-.47c0-.11,0-.21,0-.32a1.7,1.7,0,0,0,0-.39,1,1,0,0,0-.26-.44,2.94,2.94,0,0,0-.44-.35c-.14-.08-.29-.13-.42-.21l-.22-.17c-.15-.1-.33-.16-.48-.25s-.17-.13-.26-.19a.6.6,0,0,0-.27-.1.44.44,0,0,1-.31-.13c-.05-.06,0-.14-.08-.21s-.12-.13-.18-.21a6.42,6.42,0,0,0-.56-.61l-.81-.83c-.18-.18-.36-.37-.53-.56s-.27-.26-.4-.4a4.74,4.74,0,0,1-.4-.49.89.89,0,0,1-.11-.31c0-.09-.07-.18-.1-.28l-.12-.58a12.54,12.54,0,0,1-.06-1.62c0-.19-.09-.38-.09-.57s.11-.3.08-.46-.11-.21-.19-.32-.29-.42-.44-.63l-.29-.37c-.14-.18-.32-.35-.45-.54s-.09-.18-.14-.26a2.6,2.6,0,0,0-.26-.32,9.45,9.45,0,0,1-.7-1A5.2,5.2,0,0,1,1533,666c-.12-.36-.24-.73-.34-1.1,0-.14,0-.27-.09-.4a3.75,3.75,0,0,0-.21-.5,1.49,1.49,0,0,1-.13-.25s0-.09,0-.14c0-.22-.17-.43-.21-.66s0-.33,0-.5a1.8,1.8,0,0,0-.1-.33,5.68,5.68,0,0,0-.39-.78c0-.08-.08-.16-.12-.24s-.07-.12-.09-.17a1.37,1.37,0,0,1,0-.35,2.57,2.57,0,0,0,0-.68,1.8,1.8,0,0,0-.21-.35,2.64,2.64,0,0,1-.34-.72.78.78,0,0,0,0-.14,1.4,1.4,0,0,0-.09-.17,1.81,1.81,0,0,1-.13-.35,4,4,0,0,0-.12-.43c0-.13,0-.25-.07-.38a1.09,1.09,0,0,0-.23-.33,4.54,4.54,0,0,1-.38-.38,4.8,4.8,0,0,1-.3-.48,1.54,1.54,0,0,1-.11-.3c0-.17,0-.35,0-.52s-.31-.16-.44-.27-.19-.23-.32-.3l-.15-.07s-.08-.12-.14-.15-.21-.07-.31-.13l-.21-.12a3.84,3.84,0,0,0-.36-.14c-.11-.06-.23-.08-.34-.14a2.76,2.76,0,0,0-.39-.18,1.75,1.75,0,0,1-.44-.2,1.89,1.89,0,0,0-.3-.19,6.72,6.72,0,0,1-.74-.42,7.73,7.73,0,0,0-.75-.4c-.13-.06-.23-.15-.35-.2a3.52,3.52,0,0,0-.43-.13,3.76,3.76,0,0,1-.62-.27,3.85,3.85,0,0,1-.65-.56c-.25-.25-.62-.38-.77-.71,0-.06,0-.11-.09-.17s-.06,0-.08-.09a.83.83,0,0,1-.14-.3L1520,649a1.92,1.92,0,0,1-.44-.46c-.26-.31-.48-.64-.74-.93s-.2-.27-.38-.31a.78.78,0,0,1-.54-.36,4.53,4.53,0,0,0-.66-.9l-.37-.37c-.1-.08-.16-.06-.28-.11s-.13-.16-.17-.29a3.52,3.52,0,0,0-.15-.42,5.13,5.13,0,0,0-.34-.66,1.51,1.51,0,0,0-.22-.32,1.08,1.08,0,0,0-.29-.18.93.93,0,0,1-.33-.26,1.15,1.15,0,0,1-.12-.25c-.2-.46-.69-.68-1-1s-.38-.45-.57-.66a2.51,2.51,0,0,1-.33-.4c0-.09-.09-.19-.14-.29a1.73,1.73,0,0,1-.11-.32,2.25,2.25,0,0,1-.09-.35.67.67,0,0,1,0-.31.64.64,0,0,1,.2-.37c.13-.15.33-.31.35-.52a2.33,2.33,0,0,0,0-.59.69.69,0,0,0-.14-.34.35.35,0,0,0-.19-.1c-.2-.07-.3-.26-.42-.41a3.58,3.58,0,0,1-.28-.37c-.06-.11-.09-.24-.15-.35a1.49,1.49,0,0,1-.17-.59,3.89,3.89,0,0,1,.1-1.32c0-.11.12-.21.15-.32a.77.77,0,0,1,.12-.24.65.65,0,0,0,.09-.23c0-.11.09-.23.14-.34a2.16,2.16,0,0,1,.55-.58,1.32,1.32,0,0,0,.31-.36,1.26,1.26,0,0,0,.08-.43,1.53,1.53,0,0,1,0-.37,1,1,0,0,1,.26-.44c.11-.15.22-.31.34-.46a1.53,1.53,0,0,0,.25-.47,1.62,1.62,0,0,0,.16-.5.59.59,0,0,0,0-.23.72.72,0,0,0-.11-.19,1.4,1.4,0,0,1-.13-.41,1.85,1.85,0,0,0-.17-.5.49.49,0,0,1-.08-.18,1,1,0,0,0-.06-.16c-.09-.25-.27-.45-.38-.69a1.38,1.38,0,0,1,0-.54c0-.24.25-.46.09-.69a.92.92,0,0,1-.13-.21.66.66,0,0,0-.11-.2c0-.06-.09-.13-.15-.2l-.16-.17-.38-.28a.61.61,0,0,1-.28-.27,2.77,2.77,0,0,1-.22-.37.33.33,0,0,1,0-.29.43.43,0,0,0,0-.16.47.47,0,0,0-.06-.19c0-.06-.09-.07-.15-.1l-.17-.13a2.13,2.13,0,0,1-.28-.33,1,1,0,0,0-.23-.28c-.07-.05-.13,0-.21,0h-.18s-.1,0-.15,0a1.09,1.09,0,0,0-.13.17,3.84,3.84,0,0,1-.14.36.61.61,0,0,1-.2.22l-.27.17a.49.49,0,0,0-.16.16c0,.07,0,.16.08.22a.59.59,0,0,0,.22.25,1.25,1.25,0,0,1,.28.15.29.29,0,0,1,.05.27c-.05.19-.24.13-.39.16l-.23.07s-.1.05-.15,0-.22-.14-.31-.21a2.45,2.45,0,0,1-.41-.31,3.91,3.91,0,0,1-.34-.49c-.08-.1-.15-.1-.27-.1a2.09,2.09,0,0,1-.34,0c-.22,0-.54-.2-.74,0s-.1.14-.2.12l-.29,0a.92.92,0,0,1-.32-.27l-.12-.12s0-.09-.08-.14a5,5,0,0,0-.35-.74,2.83,2.83,0,0,0-.24-.25l-.15-.15a1.11,1.11,0,0,0-.33-.25,1,1,0,0,0-.24-.07h-.21l-.17,0h-.14a.66.66,0,0,1-.28-.13c-.2-.15-.21-.42-.35-.62s-.07-.15-.11-.23-.08-.12-.11-.2a.73.73,0,0,1-.08-.33,2.08,2.08,0,0,0,0-.35c0-.05,0-.11,0-.16a.35.35,0,0,0,0-.11.39.39,0,0,0-.2-.13l-.15-.06-.09,0a.4.4,0,0,1-.19-.15.5.5,0,0,0-.08-.12.68.68,0,0,1-.12-.22,1.2,1.2,0,0,0-.18-.31,1.44,1.44,0,0,1-.22-.27.61.61,0,0,0-.12-.16c-.08-.07-.13-.15-.21-.22a1.58,1.58,0,0,1-.34-.29.27.27,0,0,1,0-.16.64.64,0,0,0-.13-.49.54.54,0,0,0-.22-.15c-.07,0-.14,0-.21,0s-.34-.06-.51-.08l-.44-.08a4.87,4.87,0,0,1-.54,0,1.33,1.33,0,0,1-.41-.21,1.57,1.57,0,0,1-.26-.19,2.61,2.61,0,0,0-.46-.34s-.08-.07-.13-.09a1.54,1.54,0,0,0-.43,0,1,1,0,0,1-.33-.09l-.13,0a.7.7,0,0,1-.23-.11.9.9,0,0,0-.23-.08l-.15-.06a.48.48,0,0,1-.15-.22c0-.08-.07-.15-.1-.23a1.17,1.17,0,0,0-.06-.2c0-.05-.06-.07-.1-.1a.75.75,0,0,1-.16-.15s-.07-.09-.13-.11l-.11,0-.18-.11a.22.22,0,0,1-.11-.14,1.28,1.28,0,0,1,0-.34.38.38,0,0,0,0-.15s-.06-.07-.1-.1l-.24-.17a2.43,2.43,0,0,1-.32-.24.32.32,0,0,0-.18-.1h-.56a.9.9,0,0,0-.4.18,1.42,1.42,0,0,1-.4.12c-.32.08-.55.33-.89.17a3.29,3.29,0,0,0-.63-.29,5.9,5.9,0,0,1-1-.31,11.79,11.79,0,0,1-2.11-1.38,7.25,7.25,0,0,1-1.38-1.44,4.71,4.71,0,0,0-1.12-1.15,2.8,2.8,0,0,1-.3-.15c-.08,0-.15-.12-.23-.16s-.18,0-.24-.11-.05-.36-.05-.5v-1c0-.32-.06-.62-.06-.92a1.51,1.51,0,0,0,0-.37c0-.15-.12-.28-.16-.44a3.62,3.62,0,0,1-.17-.74c0-.31,0-.62,0-.93a2.42,2.42,0,0,1,0-.76c.08-.3.32-.64.24-.94a2.44,2.44,0,0,0-.79-1.14,3.06,3.06,0,0,1-.42-.46,4,4,0,0,1-.24-.6c-.09-.19-.14-.39-.22-.58a3.11,3.11,0,0,0-.32-.56,5.72,5.72,0,0,1-.32-.66,2.11,2.11,0,0,1-.19-.47.81.81,0,0,1,.08-.34,2.38,2.38,0,0,0,.16-.58,1.69,1.69,0,0,0,0-.59,10,10,0,0,0-.21-1.09c-.11-.39-.24-.78-.37-1.16s-.22-.42-.28-.65-.08-.54-.15-.8a5.06,5.06,0,0,0-.25-.58,1,1,0,0,0-.2-.36.2.2,0,0,0-.33,0,1.34,1.34,0,0,0-.07.18c-.06.15-.14.22-.14.38a1.7,1.7,0,0,0,0,.39,4.21,4.21,0,0,0,.09.62c.07.33.19.64.27,1s.28.46.28.74c0,.54,0,1.09,0,1.63a2.67,2.67,0,0,0,.18,1c.08.18.21.33.29.52s.13.32.2.48a4.88,4.88,0,0,1,.14,1.83,5.15,5.15,0,0,0,.17,1.24c.08.28.22.54.32.81a2.43,2.43,0,0,1,0,.81,6.25,6.25,0,0,1-.06.87c0,.24-.14.6-.42.34a1.51,1.51,0,0,1-.35-.6,1.37,1.37,0,0,1,0-.57c0-.17,0-.34,0-.5a1.8,1.8,0,0,0-.11-.56,8.34,8.34,0,0,0-.41-.92c-.15-.29-.27-.58-.4-.87a3.65,3.65,0,0,1-.18-.41,3.64,3.64,0,0,0-.14-.47,1,1,0,0,1-.12-.32,2.66,2.66,0,0,1-.09-.63v-1.39a2.16,2.16,0,0,0,0-.44.38.38,0,0,0-.24-.25c-.15-.06-.22,0-.23-.23a1.13,1.13,0,0,1,.15-.55,1.4,1.4,0,0,0,.09-.67.64.64,0,0,0-.17-.5,3.55,3.55,0,0,1-.38-.62.85.85,0,0,1-.15-.54,1.93,1.93,0,0,1,.07-.53,2.65,2.65,0,0,1,.11-.3,1.27,1.27,0,0,0,.06-.39,5.12,5.12,0,0,1,.15-.56,2.39,2.39,0,0,0-.21-1.55,4.11,4.11,0,0,1-.23-.85,3.88,3.88,0,0,0-.14-.45c-.06-.22-.08-.44-.13-.66a2.13,2.13,0,0,0-.07-.44,3.11,3.11,0,0,1-.3-1.27,1,1,0,0,1,.15-.43c.09-.17.3-.29.31-.49a5.05,5.05,0,0,0-.06-.68c0-.23,0-.44-.06-.66a3.15,3.15,0,0,0-.06-.61,2.5,2.5,0,0,1,0-.55,1.67,1.67,0,0,1,.09-.55,1.61,1.61,0,0,0,0-.44,1.86,1.86,0,0,1,.21-.72,3.56,3.56,0,0,0,.25-.61l.15-.56a2.52,2.52,0,0,0,.21-.62,1.38,1.38,0,0,0,0-.45c0-.12,0-.25,0-.37a3.22,3.22,0,0,0-.16-.5v0c.71-2.6,1.55-5.15,2.49-7.65a86.49,86.49,0,1,0,164.85,51.36A4.57,4.57,0,0,0,1646.92,623.25ZM1519.66,529.6a3.57,3.57,0,0,1-.61.62,4.65,4.65,0,0,1-.59.49,1.68,1.68,0,0,0-.42.42c-.13.18-.29.33-.41.52a1.35,1.35,0,0,0-.15.52,3.54,3.54,0,0,0-.08.45,1.07,1.07,0,0,1-.17.69l-.41.6a1.69,1.69,0,0,1-.28.32c-.11.09-.19.22-.3.31a.69.69,0,0,1-.51.11h-.51a2.92,2.92,0,0,0-.71.16,2.35,2.35,0,0,0-.75.18c-.37.22-.7.49-1.07.7a2.5,2.5,0,0,1-.52.19c-.15,0-.58.13-.69,0l-1.33-.35c-.37.09-.58-.61-.41-.88s.32-.23.47-.33.4-.23.58-.36a2.52,2.52,0,0,0,.51-.52c.12-.15.31-.24.4-.41s0-.14.07-.21.16-.19.22-.28a2.41,2.41,0,0,1,.41-.37,1.43,1.43,0,0,1,.31-.24.69.69,0,0,1,.47,0,.78.78,0,0,0,.63-.07c.26-.14.54-.24.8-.39a4.14,4.14,0,0,0,.55-.38c.13-.12.18-.27.31-.39s.3-.23.44-.36a1.94,1.94,0,0,1,.58-.4,3.79,3.79,0,0,1,.67-.33,3.76,3.76,0,0,0,.58-.25c.36-.22.66-.61,1.06-.74.19-.06.7-.28.86-.06a.94.94,0,0,1,.07.5C1519.72,529.25,1519.77,529.44,1519.66,529.6Zm-4.28,78.71h-.27a.42.42,0,0,0-.16,0,1.18,1.18,0,0,0-.22.17s-.12.06-.18.1l-.12.07a2,2,0,0,0-.28.2.2.2,0,0,1-.23,0,2.62,2.62,0,0,1-.34-.24.39.39,0,0,1-.11-.06l-.08-.09a.09.09,0,0,0-.1,0l-.52.06a2.67,2.67,0,0,0-.4,0,1,1,0,0,0-.27.13,1.49,1.49,0,0,1-.48.22c-.1,0-.27,0-.33-.09a.49.49,0,0,1,0-.21c0-.12,0-.25,0-.38a.27.27,0,0,1,.1-.26,3.83,3.83,0,0,0,.42-.28.32.32,0,0,0,0-.3.46.46,0,0,0-.2-.09.79.79,0,0,0-.22-.06l-.33,0a2.06,2.06,0,0,1-.32-.07.12.12,0,0,1-.09,0l-.09-.15-.14-.21-.12-.21a2.68,2.68,0,0,1-.12-.3.55.55,0,0,0-.31-.34.5.5,0,0,0-.36,0,1,1,0,0,0-.24.1l-.24.09-.16.07a1.52,1.52,0,0,1-.51-.09,2.34,2.34,0,0,1-.71-.3,2.27,2.27,0,0,0-.35-.26.86.86,0,0,0-.45-.07c-.18,0-.33,0-.41-.17s-.14-.4-.34-.48a.34.34,0,0,0-.18,0,1.61,1.61,0,0,0-.6.15.63.63,0,0,0-.32.23,2.16,2.16,0,0,1-.27.33.93.93,0,0,1-.18.16,1.07,1.07,0,0,1-.21.13l-.11,0s-.12,0-.15.06-.89,0-.89-.24.23-.15.27-.28a1.68,1.68,0,0,0,0-.39.34.34,0,0,1,0-.1c0-.05.08-.08.11-.12a1.71,1.71,0,0,0,.11-.14l.11-.08a4.6,4.6,0,0,1,.63-.31l.21-.14a2.88,2.88,0,0,1,.38-.22,1.68,1.68,0,0,1,.54-.11h.16a.42.42,0,0,1,.16,0c.09,0,.18.06.27.09a3.21,3.21,0,0,0,.69,0h.68a1.22,1.22,0,0,1,.33,0l.24.06a.43.43,0,0,1,.24.08.76.76,0,0,0,.14.11l.25.16c.13.07.27.11.39.19a2.86,2.86,0,0,0,.48.2l.09,0s0,0,.08,0l.13,0a1.1,1.1,0,0,1,.14.09c.1.07.19.15.3.22a1.44,1.44,0,0,1,.25.18s.06.09.1.13l.1.08.26.23a3.89,3.89,0,0,0,.5.25,1.63,1.63,0,0,0,.31.11.66.66,0,0,1,.19.09l.29.1.93.24a.92.92,0,0,1,.29.11,2.31,2.31,0,0,1,.24.2,6.73,6.73,0,0,0,.94.54,1.22,1.22,0,0,0,.38.07,1.38,1.38,0,0,1,.48.21.71.71,0,0,1,.27.44C1515.89,608.36,1515.52,608.31,1515.38,608.31Zm12.3-82.42a2.36,2.36,0,0,1,.58-.51,3.22,3.22,0,0,1,.46-.21c.12,0,.26,0,.39-.1a6.28,6.28,0,0,0,.57-.31,5.29,5.29,0,0,1,.5-.32,2,2,0,0,1,1.36-.23.76.76,0,0,0,.37,0,1.47,1.47,0,0,1,.46.11c.1,0,.13,0,.21.1a2,2,0,0,1,.2.3,2.82,2.82,0,0,1,.24.36,2,2,0,0,0,.14.41c.14.26.42.29.61.48l.29.29c.09.09.23.13.3.23s0,.33,0,.49-.06.39-.21.49a.57.57,0,0,1-.34.05c-.21,0-.42,0-.62,0s-.26-.06-.4-.07h-1a3.78,3.78,0,0,1-.75-.12,3.73,3.73,0,0,1-.58-.12,4.91,4.91,0,0,0-.67-.08,1.26,1.26,0,0,0-.39,0c-.12,0-.21.09-.33.11a2.8,2.8,0,0,1-.58,0,.6.6,0,0,1-.77-.39c-.05-.1-.17-.18-.16-.3Zm13.75,13.45a1.72,1.72,0,0,1-.63.36,1.82,1.82,0,0,1-.51.09,1.63,1.63,0,0,0-.64.36,1.67,1.67,0,0,1-.6.29.68.68,0,0,1-.37-.12c-.25-.15-.5-.34-.74-.5s-.42-.36-.65-.53a.41.41,0,0,0-.28-.11,1.77,1.77,0,0,0-.46,0c-.3.08-.32.53-.37.76a2.3,2.3,0,0,0-.1.63,1.08,1.08,0,0,0,.41.78,2.74,2.74,0,0,1,.53.64,2.59,2.59,0,0,1,.17.92,1.7,1.7,0,0,1-.8,1.22c-.31.22-.68-.06-1-.14a3.15,3.15,0,0,0-.69-.16c-.42,0-1.29-.13-1.45.43a2.09,2.09,0,0,0,0,.25,4.89,4.89,0,0,1,0,.55c-.09.13-.43,0-.52-.08a4.49,4.49,0,0,0-.9-.18,7.79,7.79,0,0,0-1.08,0c-.42,0-1,.05-1.23-.37s.07-.92-.22-1.26a1.42,1.42,0,0,0-.6-.36,4.27,4.27,0,0,0-1.37-.22l-1.51-.63c-.24,0-.32,0-.43-.24a1.8,1.8,0,0,1-.14-.41c0-.09-.06-.19-.08-.28,0-.26.46-.44.64-.53a2,2,0,0,1,.86-.17,10.87,10.87,0,0,0,1.47-.28,8.16,8.16,0,0,1,1,0c.14,0,.3,0,.41-.11s.07-.35.11-.52a1.31,1.31,0,0,1,.24-.37,1,1,0,0,0,.09-.34.83.83,0,0,1,.14-.46,3.39,3.39,0,0,1,.5-.34c.23-.17.5-.28.73-.47a1.77,1.77,0,0,0,.58-1.1,6,6,0,0,0,0-1,1.77,1.77,0,0,0,0-.23,3.38,3.38,0,0,0-.18-.44c-.07-.2-.09-.39-.31-.51a3.36,3.36,0,0,0-.84-.15,3.75,3.75,0,0,0-.82-.1,4.9,4.9,0,0,1-.93-.06,2,2,0,0,1-.68-.24,2,2,0,0,1-.46-.24.67.67,0,0,0-.41-.2,3.29,3.29,0,0,0-.63,0h-.88c-.19,0-.36-.05-.55-.06a.69.69,0,0,1-.5-.11c-.19-.15-.13-.42-.08-.62a1.49,1.49,0,0,1,.26-.71,1.9,1.9,0,0,0,.21-.19,1.44,1.44,0,0,1,.43-.34c.36-.21.7-.46,1.06-.67a2.09,2.09,0,0,0,.39-.27,1.12,1.12,0,0,0,.29-.63,1,1,0,0,1,.32-.5,3.59,3.59,0,0,1,.4-.38c.25-.19.54-.32.8-.48a2.58,2.58,0,0,1,.76-.38c.09,0,.28-.11.38-.07.31.14.16,1,.15,1.31,0,.12,0,.17.13.21a1.93,1.93,0,0,0,.34,0h1.14a5,5,0,0,1,1,.12,1.06,1.06,0,0,1,.59.21c.27.34-.74.88-.14,1.07s1,.28,1.55.43c.36.1.71.22,1.08.31a5.17,5.17,0,0,1,.64.19,5.72,5.72,0,0,1,.92.7,1.81,1.81,0,0,1,.87,1c.09.4-.23.65-.5.89s-.51.35-.51.59.65.49.82.58.4.21.59.33a4.8,4.8,0,0,1,.54.32,1.75,1.75,0,0,1,.29.32,3.21,3.21,0,0,0,.12.33c.25.42.63.75.85,1.19s.23.63.62.83C1541.41,538.88,1541.67,539.08,1541.43,539.34Zm2.51-18.21a2.54,2.54,0,0,0-.59.71,3.25,3.25,0,0,1-.82.91,4.3,4.3,0,0,1-1.1.36,4.92,4.92,0,0,1-1.25.23c-.24,0-.41-.25-.67-.17a5.65,5.65,0,0,0-.75.35c-.57.31-1.11.69-1.69,1a3.19,3.19,0,0,1-.46.2,1.34,1.34,0,0,0-.4.23,1.87,1.87,0,0,1-.83.36,1.19,1.19,0,0,1-.46,0c-.18-.06-.12-.15-.22-.12l-.13-.13c-.13-.16-.06-.13-.17-.32s-.08-.4-.27-.46-.49,0-.7-.13a1,1,0,0,1-.35-.35c-.11-.32.22-.58.46-.69a2.79,2.79,0,0,0,1-.63l.35-.4a1.13,1.13,0,0,1,.79-.52,6.06,6.06,0,0,0,1.27-.24,5.63,5.63,0,0,0,.94-.42c.27-.17.51-.38.79-.54a4.69,4.69,0,0,0,1-.82,2.08,2.08,0,0,1,1.54-.37c.3,0,.58.06.88.06a6.43,6.43,0,0,1,1.16.12,3.09,3.09,0,0,0,1.24-.18c.53-.17,1.06-.36,1.59-.56a8.21,8.21,0,0,1,2.62-.66c.37,0,.75.06,1.13.06a4.66,4.66,0,0,0,1.11-.12,6.27,6.27,0,0,0,.92-.32c.31-.13.48-.21.76,0a.82.82,0,0,1,.34.68c0,.29-.1.52-.4.59a6.64,6.64,0,0,1-1.18,0,3.47,3.47,0,0,0-.79,0c-.49.13-.82.57-1.28.74a4,4,0,0,1-1.22.28,9.78,9.78,0,0,0-2.1.07,4.45,4.45,0,0,0-1.25.58,2.38,2.38,0,0,0-.43.34A1.5,1.5,0,0,1,1543.94,521.13Zm33.5,12.44a1.33,1.33,0,0,1-.41.68c-.29.25-.62.48-.93.72a6.47,6.47,0,0,1-1.95.87,2.83,2.83,0,0,1-1,.09c-.7,0-1.4,0-2.1,0a3.27,3.27,0,0,0-1.08.14c-.22.09-.24.21-.32.43-.17.42-.39.83-.55,1.26a5.11,5.11,0,0,1-.43.88,1.61,1.61,0,0,1-.79.71,8.16,8.16,0,0,1-1.85.24c-.39,0-.78.09-1.18.11a2,2,0,0,0-.48,0c-.22,0-.44.1-.66.13a2.71,2.71,0,0,0-1.2.46,2.49,2.49,0,0,0-.67,1.65,1.77,1.77,0,0,1-.39,1.06,4.67,4.67,0,0,1-.74.59c-.24.17-.57.37-.68.67a2.88,2.88,0,0,0,0,.42c0,.23-.07.45-.1.68s0,.51,0,.76a2.12,2.12,0,0,1-.3,1.48,4.24,4.24,0,0,1-1.32.8.69.69,0,0,1-.64,0,1.69,1.69,0,0,0-.29-.17,7,7,0,0,0-2.17-.73c-.39,0-.77.07-1.16,0a.4.4,0,0,1-.37-.27,2.7,2.7,0,0,1-.2-.74,1.59,1.59,0,0,0-1.64-1.17c-.22,0-.59.1-.68-.18,0-.09,0-.23-.05-.33s-.07-.47-.11-.7a7.65,7.65,0,0,1-.18-1.26,1,1,0,0,0,0-.43,6.38,6.38,0,0,0-.43-.63c-.26-.47,0-.89.12-1.35a1.72,1.72,0,0,0,.15-.69.83.83,0,0,0-.1-.34,3.48,3.48,0,0,0-.28-.39,4.42,4.42,0,0,1-.56-.8,1.56,1.56,0,0,1-.08-.61,1.4,1.4,0,0,1,.22-.64c.07-.14.17-.26.25-.4a1.65,1.65,0,0,1,.27-.38l.54-.55a3.52,3.52,0,0,0,.44-.69l.23-.39a1.45,1.45,0,0,0,.31-.5,1.56,1.56,0,0,0,0-.57,4.47,4.47,0,0,0-.23-.87c-.08-.23-.17-.55-.45-.63a2,2,0,0,1-.24,0l-.19-.09a1.19,1.19,0,0,1-.25-.13c-.11-.1,0-.17,0-.28a1,1,0,0,0,.17-.62,1.29,1.29,0,0,0-.24-.55,2.66,2.66,0,0,0-.35-.32c-.09-.08-.16-.17-.25-.26a1.53,1.53,0,0,1-.36-.58,2.32,2.32,0,0,1-.07-.69,1.25,1.25,0,0,1,.11-.5c.08-.2.22-.37.29-.58a1.4,1.4,0,0,0,.18-.59c-.06-.45-.66-.8-1.07-.86l-.35-.05c-.07,0-.14,0-.2,0a2.9,2.9,0,0,1-.29-.19l-.21-.09a3.6,3.6,0,0,0-.68-.34c-.2,0-.32,0-.5.09-.35.1-.7.16-1,.25a2.88,2.88,0,0,1-.83.06l-.29-.93c0-.13.1-.23.12-.35s0-.15,0-.23a.51.51,0,0,1,.13-.29c.12-.12.28-.1.41-.18.35-.23.15-.66.46-.92a1,1,0,0,1,.62-.18c.26,0,.51,0,.76-.07a3.2,3.2,0,0,0,1.28-.37,2.29,2.29,0,0,0,.54-.49,3.32,3.32,0,0,1,1.83-1,19.34,19.34,0,0,1,2.28-.37,11,11,0,0,0,1.88-.39c.86-.27,1.72-.56,2.57-.87a6.16,6.16,0,0,1,2.17-.34,6.5,6.5,0,0,0,1.08,0,5.31,5.31,0,0,0,.67-.08c.45-.12.86-.35,1.31-.44a13.76,13.76,0,0,1,2.31.12c.46,0,.9,0,1.35-.09s.88-.22,1.33-.31a1.61,1.61,0,0,1,1.24.28c.24.18.38.46.63.64a1.19,1.19,0,0,0,.73.22c.66,0,1.31,0,2,0a1.41,1.41,0,0,1,.81.22c.21.18.15.41.15.65a4.65,4.65,0,0,0,.07.75,2.54,2.54,0,0,0,.16.38,7.23,7.23,0,0,1,.37,2,3.59,3.59,0,0,0,.22,1,2.21,2.21,0,0,0,.72.77c.2.18.6.44.6.75s-.13.35-.16.52c-.1.63.54,1,1,1.28.25.19.68.48.71.83a1.88,1.88,0,0,1-.11.62,5.77,5.77,0,0,1-1.17,2.18c-.15.21-.44.45-.41.73a1.27,1.27,0,0,0,.33.64c.43.47,1.09.37,1.63.6a.57.57,0,0,1,.32.23C1577.54,533.28,1577.47,533.45,1577.44,533.57Z" transform="translate(-1475.91 -515.1)"/><path class="cls-3" d="M1621.73,537.88" transform="translate(-1475.91 -515.1)"/><path class="cls-4" d="M1619.47,663.65c-20.32,23.74-53.83,27.64-78.26,21.55-35.51-8.85-62.73-41.51-64.44-78.88-1.75-38.47,23.64-79.62,61.9-86,45.23-7.51,76.56,38.88,78.84,42.38C1633.94,587.88,1645.72,633,1619.47,663.65Z" transform="translate(-1475.91 -515.1)"/><path class="cls-5" d="M1516.93,675.41a86.36,86.36,0,0,0,124.42-38.33c-43.57,25.24-91.79,22.22-115.67-2.87-17.58-18.48-19.69-46.54-19.92-50.2-.43-6.77-1.45-27.47,11-47.84a74.2,74.2,0,0,1,10.39-13.28,86.47,86.47,0,0,0-10.24,152.52Z" transform="translate(-1475.91 -515.1)"/><ellipse class="cls-6" cx="1542.01" cy="553.58" rx="3.72" ry="8.75" transform="translate(-1570.69 110.48) rotate(-22.27)"/><ellipse class="cls-6" cx="1588.63" cy="542.06" rx="3.72" ry="8.75" transform="translate(-1562.85 127.29) rotate(-22.27)"/><path class="cls-6" d="M1557.89,562.45c3.59,7.54,12.39,9.94,17.91,6.56,4.21-2.58,6.34-8.43,4.78-14.19Z" transform="translate(-1475.91 -515.1)"/><path class="cls-7" d="M1564.82,564a12.5,12.5,0,0,1,5.15-.61c3.5.3,8.13,2,8.08,3.76s-4.71,2.91-5.13,3a12.61,12.61,0,0,1-4.58.28c-3.31-.41-7.5-2.21-7.4-3.89C1561,565.26,1563.46,564.42,1564.82,564Z" transform="translate(-1475.91 -515.1)"/><path class="cls-8" d="M1585.38,625.71" transform="translate(-1475.91 -515.1)"/><path class="cls-9" d="M1582.19,623.05c-17-2.7-45.77-4.52-76.58,8a133.84,133.84,0,0,0-21.31,11q1.08,14.88,2.14,29.77c12.29-7.4,25.41-14.82,39.38-22.13C1545.41,639.39,1564.31,630.6,1582.19,623.05Z" transform="translate(-1475.91 -515.1)"/><path class="cls-9" d="M1580.38,623.74a88.26,88.26,0,0,1,45.18-35.92,96.14,96.14,0,0,1,21.35-4.76l15.52,20.63c-11.28,1.83-23,4.1-35.13,6.9C1610.32,614.52,1594.68,619,1580.38,623.74Z" transform="translate(-1475.91 -515.1)"/><polygon class="cls-9" points="111.02 119.8 133.12 171.14 134.51 131.31 113.97 117.84 111.02 119.8"/><polygon class="cls-9" points="111 119.39 126.76 173.2 100.57 144.14 107.54 119.93 111 119.39"/><path class="cls-8" d="M1574.78,625.52l4.54,13.93a15.84,15.84,0,0,0,15.35-5.4q-2.94-6.87-5.9-13.73a13.5,13.5,0,0,0-14,5.2Z" transform="translate(-1475.91 -515.1)"/><image width="450" height="396" transform="translate(98.25 111.39) rotate(-23.25) scale(0.04)" xlink:href="../../Club%20de%20aventureros%20logo%20espa%C3%B1ol%20png.png"/></g></g></svg>